<svg preserveAspectRatio="none" width="100%" height="100%" overflow="visible" style="display: block;" viewBox="0 0 81.7264 55.2" fill="none" xmlns="http://www.w3.org/2000/svg">
<g id="cloud4">
<g id="Union" filter="url(#filter0_f_2037_3364)">
<path d="M49.5336 6.1C56.4118 6.1 62.2271 10.6482 64.1381 16.9008C64.4171 16.8788 64.6992 16.8646 64.9838 16.8646C70.8613 16.8648 75.6264 21.6296 75.6264 27.5072C75.6264 32.6721 71.9463 36.9754 67.0658 37.9437C65.6162 44.3316 59.904 49.1 53.0775 49.1C48.9526 49.0999 45.2353 47.3582 42.6186 44.5707C40.3422 45.919 37.6865 46.6947 34.849 46.6947C29.4307 46.6947 24.6716 43.8722 21.9613 39.6176C20.4189 40.4876 18.6397 40.9877 16.7426 40.9877C10.865 40.9877 6.10011 36.2227 6.1 30.3451C6.1 24.4674 10.8649 19.7025 16.7426 19.7025C17.1172 19.7025 17.4873 19.7214 17.852 19.7592C17.5925 18.839 17.4506 17.8688 17.4506 16.8656C17.4507 10.9881 22.2156 6.22313 28.0932 6.22305C32.1917 6.22305 35.7467 8.54148 37.5248 11.9369C40.3205 8.38259 44.6607 6.10014 49.5336 6.1Z" fill="var(--fill-0, #FFF3E6)"/>
</g>
</g>
<defs>
<filter id="filter0_f_2037_3364" x="0" y="0" width="81.7264" height="55.2" filterUnits="userSpaceOnUse" color-interpolation-filters="sRGB">
<feFlood flood-opacity="0" result="BackgroundImageFix"/>
<feBlend mode="normal" in="SourceGraphic" in2="BackgroundImageFix" result="shape"/>
<feGaussianBlur stdDeviation="3.05" result="effect1_foregroundBlur_2037_3364"/>
</filter>
</defs>
</svg>
