<svg preserveAspectRatio="none" width="100%" height="100%" overflow="visible" style="display: block;" viewBox="0 0 237.6 162.296" fill="none" xmlns="http://www.w3.org/2000/svg">
<g id="cloud7">
<g id="Union" filter="url(#filter0_f_2037_3407)">
<path d="M138.567 41.3C149.824 41.3 158.983 50.2827 159.268 61.4719C159.89 61.4119 160.521 61.3811 161.158 61.3811C169.77 61.3811 177.073 66.977 179.633 74.7307C180.361 74.6175 181.108 74.5588 181.867 74.5588C189.838 74.559 196.3 81.0213 196.3 88.9924C196.3 96.9634 189.838 103.425 181.867 103.425C181.8 103.425 181.732 103.423 181.664 103.422C177.114 109.785 168.372 114.093 158.334 114.093C155.106 114.093 152.012 113.647 149.149 112.831C142.901 117.793 133.037 120.996 121.938 120.996C107.507 120.996 95.1639 115.584 90.1418 107.929C87.0341 111.693 82.3323 114.093 77.0695 114.093C69.5611 114.093 63.1943 109.209 60.9709 102.445C59.3472 103.077 57.5811 103.425 55.7336 103.425C47.7624 103.425 41.3001 96.9635 41.3 88.9924C41.3 81.8436 46.4974 75.9096 53.3195 74.7609C55.7105 65.966 63.7517 59.4983 73.3039 59.4982C77.419 59.4982 81.2543 60.6982 84.4777 62.7678C87.2829 54.6558 94.9872 48.8304 104.053 48.8303C109.929 48.8303 115.233 51.2774 119.002 55.2082C121.816 47.1117 129.512 41.3002 138.567 41.3Z" fill="var(--fill-0, #FFF3E6)"/>
</g>
</g>
<defs>
<filter id="filter0_f_2037_3407" x="0" y="0" width="237.6" height="162.296" filterUnits="userSpaceOnUse" color-interpolation-filters="sRGB">
<feFlood flood-opacity="0" result="BackgroundImageFix"/>
<feBlend mode="normal" in="SourceGraphic" in2="BackgroundImageFix" result="shape"/>
<feGaussianBlur stdDeviation="20.65" result="effect1_foregroundBlur_2037_3407"/>
</filter>
</defs>
</svg>
