<svg preserveAspectRatio="none" width="100%" height="100%" overflow="visible" style="display: block;" viewBox="0 0 392.6 241.993" fill="none" xmlns="http://www.w3.org/2000/svg">
<g id="cloud5">
<g id="Union" filter="url(#filter0_f_2037_3480)">
<path d="M235.834 41.3C258.35 41.3 276.668 59.2664 277.237 81.6447C278.48 81.5248 279.742 81.4621 281.017 81.4621C298.24 81.4622 312.847 92.6548 317.967 108.162C319.423 107.936 320.915 107.82 322.434 107.82C338.376 107.82 351.3 120.743 351.3 136.686C351.3 152.628 338.376 165.552 322.434 165.552C322.298 165.552 322.163 165.548 322.028 165.546C312.926 178.272 295.444 186.887 275.367 186.887C268.913 186.887 262.727 185.995 257 184.364C244.504 194.288 224.775 200.693 202.575 200.693C173.714 200.693 149.028 189.869 138.984 174.56C132.768 182.089 123.364 186.888 112.839 186.888C97.8226 186.888 85.0889 177.119 80.6418 163.591C77.3942 164.856 73.8615 165.552 70.1662 165.552C54.2239 165.552 41.3002 152.628 41.3 136.686C41.3 122.388 51.6957 110.518 65.341 108.222C70.1234 90.6326 86.2039 77.6976 105.308 77.6975C113.538 77.6975 121.209 80.098 127.655 84.2375C133.266 68.0131 148.674 56.3607 166.806 56.3605C178.558 56.3605 189.166 61.2563 196.704 69.1184C202.331 52.9246 217.724 41.3 235.834 41.3Z" fill="var(--fill-0, #FFF3E6)"/>
</g>
</g>
<defs>
<filter id="filter0_f_2037_3480" x="0" y="0" width="392.6" height="241.993" filterUnits="userSpaceOnUse" color-interpolation-filters="sRGB">
<feFlood flood-opacity="0" result="BackgroundImageFix"/>
<feBlend mode="normal" in="SourceGraphic" in2="BackgroundImageFix" result="shape"/>
<feGaussianBlur stdDeviation="20.65" result="effect1_foregroundBlur_2037_3480"/>
</filter>
</defs>
</svg>
