<svg preserveAspectRatio="none" width="100%" height="100%" overflow="visible" style="display: block;" viewBox="0 0 125 82" fill="none" xmlns="http://www.w3.org/2000/svg">
<g id="cloud2">
<path id="Union" d="M64.5 0C70.6486 0 76.131 2.62819 79.7051 6.73242C81.215 6.25751 82.8264 6 84.5 6C92.2389 6 98.6517 11.4888 99.8115 18.6631C101.466 18.2309 103.205 18 105 18C116.046 18 125 26.7304 125 37.5C125 46.5906 118.62 54.2272 109.987 56.3877C109.994 56.591 110 56.7951 110 57C110 66.9411 101.717 75 91.5 75C86.9687 75 82.8191 73.4136 79.6025 70.7822C76.7753 77.3613 69.9604 82 62 82C54.2737 82 47.6248 77.6309 44.6553 71.3584C41.5537 73.6431 37.6901 75 33.5 75C24.5345 75 17.0596 68.7947 15.3623 60.5576C6.58052 58.6599 0 50.8496 0 41.5C0 30.7304 8.73045 22 19.5 22C21.2356 22 22.9179 22.2278 24.5195 22.6533C27.2521 16.3746 33.3792 12 40.5 12C42.3522 12 44.137 12.2963 45.8125 12.8447C48.2141 5.416 55.6715 0 64.5 0Z" fill="var(--fill-0, #FFF3E6)"/>
</g>
</svg>
