<svg width="117" height="50" viewBox="0 0 117 50" fill="none" xmlns="http://www.w3.org/2000/svg">
<path d="M54.9005 2.80059C62.6026 2.43632 69.2196 7.95546 70.4018 15.3975C72.9784 11.7993 77.1171 9.37227 81.881 9.14687C89.6055 8.78141 96.2383 14.3338 97.3922 21.8088C107.326 22.0925 115.514 29.9945 115.992 40.085L116.164 43.7353L89.5436 44.9947L89.5436 44.9957L2.06923 49.1342C1.52289 37.5823 10.4447 27.7742 21.9966 27.2276L23.6237 27.1506C25.1353 20.8306 30.6718 16.0004 37.4886 15.6779C38.6007 15.6253 39.6901 15.696 40.7439 15.8768C41.6366 8.78671 47.5177 3.14988 54.9005 2.80059Z" fill="#7A5940"/>
</svg>
