<svg preserveAspectRatio="none" width="100%" height="100%" overflow="visible" style="display: block;" viewBox="0 0 181 269" fill="none" xmlns="http://www.w3.org/2000/svg">
<g id="Frame 523">
<rect id="Rectangle 936" x="181" y="269" width="181" height="269" transform="rotate(180 181 269)" fill="var(--fill-0, #D7D3C2)"/>
<g id="Group 15535">
<path id="Vector" d="M92.6738 179.214C91.0001 181.111 86.8437 182.868 84.3052 183.998C79.5351 186.118 73.6352 183.021 73.4957 182.045C73.3562 181.083 71.1943 181.041 70.9293 180.176C69.9669 177.052 72.882 172.407 72.7565 167.609C72.631 162.783 76.7455 158.892 78.1822 157.204C78.7122 156.59 81.4599 150.914 85.5047 149.101C89.703 147.218 91.544 142.266 91.6277 141.792C91.7532 141.067 96.8721 142.587 98.8945 149.059C99.4803 150.956 101.823 154.191 102.047 156.869C102.395 161.096 102.674 160.747 101.042 166.549C100.233 169.436 100.15 171.012 98.225 173.927C97.165 175.545 94.6404 176.954 92.6878 179.158L92.6738 179.214Z" fill="url(#paint0_radial_2245_3651)"/>
<path id="Vector_2" d="M90.2193 156.73C89.3406 159.408 87.3739 164.918 83.7894 169.911C79.4238 175.992 76.2019 179.8 72.7847 182.673C70.8738 184.291 61.7939 189.591 60.0644 190.442C58.3488 191.293 58.5162 189.284 59.4228 188.768C60.3294 188.252 70.2322 182.799 71.2365 181.822C72.2407 180.846 75.6858 178.6 79.8562 173.119C84.6402 166.829 88.3503 159.032 88.9501 157.149C89.4103 155.684 90.7353 152.058 91.4606 148.557C92.1162 145.377 92.2138 143.215 92.2138 143.215C92.3812 143.536 92.6741 145.963 92.158 148.878C91.7396 151.235 91.112 153.997 90.2193 156.73Z" fill="var(--fill-0, #5CA708)"/>
<path id="Vector_3" d="M108.707 194.739C106.769 195.478 103.164 195.369 100.919 195.329C96.7242 195.262 93.8441 191.476 94.1355 190.804C94.427 190.132 92.9307 189.464 93.0791 188.811C93.6591 186.485 97.5633 184.346 99.393 181.188C101.234 178.015 105.68 176.73 107.362 176.054C107.977 175.808 112.18 172.955 115.735 172.989C119.436 173.03 122.711 170.359 122.951 170.084C123.329 169.655 126.302 172.191 125.112 177.009C124.764 178.429 125.098 181.234 124.182 183.042C122.734 185.891 123.072 185.751 119.591 189.042C117.87 190.678 117.173 191.675 114.652 192.991C113.256 193.722 110.933 193.881 108.679 194.73L108.707 194.739Z" fill="url(#paint1_radial_2245_3651)"/>
<path id="Vector_4" d="M116.256 179.128C114.537 180.607 110.891 183.619 106.31 185.803C100.732 188.461 96.8794 189.977 93.2843 190.824C91.266 191.305 82.6516 192.034 81.0819 192.062C79.5122 192.089 80.456 190.839 81.308 190.776C82.16 190.712 91.4143 190.137 92.5237 189.796C93.6332 189.454 97.0042 189.029 102.198 186.707C108.164 184.036 113.979 180.077 115.165 179.022C116.087 178.194 118.519 176.226 120.453 174.164C122.225 172.287 123.164 170.903 123.164 170.903C123.159 171.16 122.368 172.834 120.808 174.588C119.55 176.002 117.985 177.622 116.23 179.132L116.256 179.128Z" fill="var(--fill-0, #89C237)"/>
<path id="Vector_5" d="M71.2259 191.5C69.1061 191.725 81.0073 199.713 80.643 198.293C80.4891 197.699 90.5433 215.151 94.3066 222.342C99.7433 232.697 99.391 233.413 99.6484 233.964C99.7166 234.098 104.538 226.892 104.161 223.223C103.711 218.983 106.335 213.354 104.244 208.399C102.548 204.362 98.8751 200.651 96.6522 196.678C92.3673 189.031 81.2598 189.827 73.0505 190.701L71.2259 191.5Z" fill="url(#paint2_radial_2245_3651)"/>
<path id="Vector_6" d="M88.6056 214.907C87.3709 212.54 85.0621 206.815 80.8881 202.594C75.8111 197.466 72.7004 192.81 68.357 192.011C65.7454 191.531 61.4879 190.012 59.7061 189.406C57.9225 188.814 58.1199 190.692 59.0718 191.072C60.0238 191.452 65.1723 192.685 66.4262 193.242C68.2248 194.06 72.8345 195.453 76.7926 200.659C81.3833 206.685 82.2903 210.15 85.6823 214.685C86.9182 216.335 91.0266 220.281 92.8837 223.199C94.8961 226.347 98.1198 231.704 98.1198 231.704C98.2409 231.395 95.2735 225.774 94.366 223.137C93.6361 221.013 89.8613 217.332 88.6178 214.923L88.6056 214.907Z" fill="var(--fill-0, #6E9337)"/>
<path id="Vector_7" d="M76.7014 190.162C75.5242 189.777 67.1166 189.937 66.7365 193.123C66.5997 194.27 66.4757 194.585 67.9508 195.005C69.4259 195.425 76.3627 199.95 80.2605 205.872C81.4907 207.742 83.7458 213.538 88.9704 219.676C95.8865 227.796 99.3432 234.349 99.6094 234.41C99.7779 234.444 98.283 230.331 98.0538 224.172C97.9522 221.647 94.9002 216.716 94.7523 212.649C94.6166 208.842 89.6173 202.746 86.9284 197.786C84.8539 193.949 80.7317 191.475 76.6997 190.176L76.7014 190.162Z" fill="var(--fill-0, #97C653)"/>
</g>
<path id="Rectangle 937" d="M181 269L0.00131222 267.99L0.00130351 0.746985L181 0L181 269Z" fill="url(#paint3_linear_2245_3651)"/>
</g>
<defs>
<radialGradient id="paint0_radial_2245_3651" cx="0" cy="0" r="1" gradientUnits="userSpaceOnUse" gradientTransform="translate(37.7259 212.5) rotate(-50.4836) scale(88.7947 22.2278)">
<stop offset="0.41" stop-color="#12491D"/>
<stop offset="0.64" stop-color="#237D26"/>
<stop offset="0.98" stop-color="#539F00"/>
</radialGradient>
<radialGradient id="paint1_radial_2245_3651" cx="0" cy="0" r="1" gradientTransform="matrix(16.8096 -37.3977 -37.7427 -17.5954 193.666 -40.8954)" gradientUnits="userSpaceOnUse">
<stop offset="0.0288462" stop-color="#12491D"/>
<stop offset="0.413462" stop-color="#237D26"/>
<stop offset="0.870192" stop-color="#539F00"/>
</radialGradient>
<radialGradient id="paint2_radial_2245_3651" cx="0" cy="0" r="1" gradientUnits="userSpaceOnUse" gradientTransform="translate(74.2259 201.5) rotate(39.44) scale(40.1404 15.1055)">
<stop offset="0.41" stop-color="#12491D"/>
<stop offset="0.64" stop-color="#237D26"/>
<stop offset="0.98" stop-color="#539F00"/>
</radialGradient>
<linearGradient id="paint3_linear_2245_3651" x1="8.42935e-05" y1="117.5" x2="181" y2="117.5" gradientUnits="userSpaceOnUse">
<stop stop-color="#FFFDF6"/>
<stop offset="1" stop-color="#FAF6E6"/>
</linearGradient>
</defs>
</svg>
