<svg preserveAspectRatio="none" width="100%" height="100%" overflow="visible" style="display: block;" viewBox="0 0 92.9434 20.4834" fill="none" xmlns="http://www.w3.org/2000/svg">
<path id="&#237;&#140;&#187;&#235;&#167;&#144;&#237;&#157;&#153;" d="M22.7715 0C26.0127 0.000105927 28.6811 2.44991 29.0283 5.59863C30.1814 4.13837 31.9666 3.2002 33.9717 3.2002C37.4487 3.20039 40.2675 6.01906 40.2676 9.49609C40.2676 9.75526 40.2501 10.0108 40.2197 10.2617C41.6255 9.51415 43.2294 9.08887 44.9326 9.08887C46.064 9.08892 47.1479 9.29228 48.1504 9.66309C49.1126 7.41841 51.3416 5.84576 53.9385 5.8457C54.4069 5.8457 54.8634 5.89807 55.3027 5.99512C55.818 3.03625 58.3976 0.786133 61.5039 0.786133C64.7452 0.786197 67.4135 3.23598 67.7607 6.38477C68.9138 4.92445 70.699 3.98633 72.7041 3.98633C76.1812 3.98648 78.9999 6.80513 79 10.2822C79 10.5414 78.9826 10.7969 78.9521 11.0479C80.3579 10.3002 81.9618 9.875 83.665 9.875C88.7896 9.87518 92.9433 14.0297 92.9434 19.1543V20.4717H75.2588V20.4834H51.9355V20.4717H38.7324C38.7324 20.2066 38.7463 19.9446 38.7695 19.6855H36.5264V19.6973H13.2031V19.6855H0C0 14.8791 3.89666 10.9824 8.70312 10.9824H8.92188C9.11531 7.67923 11.8543 5.06058 15.2061 5.06055C15.6746 5.06055 16.1309 5.11288 16.5703 5.20996C17.0852 2.25067 19.6649 0 22.7715 0Z" fill="url(#paint0_linear_2037_3464)"/>
<defs>
<linearGradient id="paint0_linear_2037_3464" x1="66" y1="10" x2="65.8379" y2="20.4834" gradientUnits="userSpaceOnUse">
<stop stop-color="#DA9658"/>
<stop offset="1" stop-color="#FFEAD2"/>
</linearGradient>
</defs>
</svg>
