<svg preserveAspectRatio="none" width="100%" height="100%" overflow="visible" style="display: block;" viewBox="0 0 84.4854 30.6973" fill="none" xmlns="http://www.w3.org/2000/svg">
<path id="&#235;&#176;&#148;&#235;&#139;&#165;&#237;&#157;&#153;1" d="M35.4873 0C40.539 0 44.6973 3.81807 45.2383 8.72559C47.0352 6.44951 49.8174 4.98732 52.9424 4.9873C58.3615 4.9873 62.7549 9.38068 62.7549 14.7998C62.7549 15.2029 62.7269 15.5999 62.6797 15.9902C64.8703 14.8253 67.3703 14.165 70.0244 14.165C78.0109 14.1651 84.4854 20.6394 84.4854 28.626V30.6787H56.9238V30.6973H20.5762V30.6787H0C0 23.1881 6.0719 17.1153 13.5625 17.1152H13.9043C14.2059 11.9675 18.4748 7.88574 23.6982 7.88574C24.428 7.88577 25.1389 7.96702 25.8232 8.11816C26.6261 3.50678 30.6462 7.04451e-05 35.4873 0Z" fill="url(#paint0_linear_2037_3375)"/>
<defs>
<linearGradient id="paint0_linear_2037_3375" x1="42.2427" y1="0" x2="42.2427" y2="30.6973" gradientUnits="userSpaceOnUse">
<stop stop-color="#DA9658"/>
<stop offset="1" stop-color="#FFEAD2"/>
</linearGradient>
</defs>
</svg>
