<svg preserveAspectRatio="none" width="100%" height="100%" overflow="visible" style="display: block;" viewBox="0 0 54.2109 19.6973" fill="none" xmlns="http://www.w3.org/2000/svg">
<path id="&#235;&#176;&#148;&#235;&#139;&#165;&#237;&#157;&#153;2" d="M22.7715 0C26.0127 0.000105927 28.6811 2.44991 29.0283 5.59863C30.1814 4.13837 31.9666 3.2002 33.9717 3.2002C37.4487 3.20039 40.2675 6.01906 40.2676 9.49609C40.2676 9.75526 40.2501 10.0108 40.2197 10.2617C41.6255 9.51415 43.2294 9.08887 44.9326 9.08887C50.0571 9.08909 54.2109 13.2437 54.2109 18.3682V19.6855H36.5264V19.6973H13.2031V19.6855H0C0 14.8791 3.89666 10.9824 8.70312 10.9824H8.92188C9.11531 7.67923 11.8543 5.06058 15.2061 5.06055C15.6746 5.06055 16.1309 5.11288 16.5703 5.20996C17.0852 2.25067 19.6649 0 22.7715 0Z" fill="url(#paint0_linear_2037_3454)"/>
<defs>
<linearGradient id="paint0_linear_2037_3454" x1="27.1055" y1="0" x2="27.1055" y2="19.6973" gradientUnits="userSpaceOnUse">
<stop stop-color="#DA9658"/>
<stop offset="1" stop-color="#FFEAD2"/>
</linearGradient>
</defs>
</svg>
