<svg preserveAspectRatio="none" width="100%" height="100%" overflow="visible" style="display: block;" viewBox="0 0 137.612 49.999" fill="none" xmlns="http://www.w3.org/2000/svg">
<path id="&#237;&#157;&#153;" d="M57.8027 0C66.0283 0 72.8009 6.21437 73.6855 14.2041C76.6125 10.4997 81.1456 8.12207 86.2334 8.12207C95.0599 8.1223 102.215 15.278 102.215 24.1045C102.215 24.7606 102.174 25.4076 102.098 26.043C105.665 24.1465 109.736 23.0713 114.058 23.0713C127.066 23.0713 137.612 33.6165 137.612 46.625V49.9688H92.7178V49.999H33.5137V49.9688H0C4.82475e-05 37.768 9.89102 27.8771 22.0918 27.877H22.6465C23.1376 19.4921 30.0925 12.8438 38.6006 12.8438C39.788 12.8438 40.945 12.9741 42.0586 13.2197C43.3673 5.70968 49.9182 1.19708e-05 57.8027 0Z" fill="url(#paint0_linear_2037_3352)"/>
<defs>
<linearGradient id="paint0_linear_2037_3352" x1="68.8062" y1="0" x2="68.8062" y2="49.999" gradientUnits="userSpaceOnUse">
<stop offset="0.110577" stop-color="#C9792E"/>
<stop offset="1" stop-color="#E0AD76"/>
</linearGradient>
</defs>
</svg>
