<svg preserveAspectRatio="none" width="100%" height="100%" overflow="visible" style="display: block;" viewBox="0 0 20.8152 81.5496" fill="none" xmlns="http://www.w3.org/2000/svg">
<path id="Vector" d="M14.3863 3.64086C17.3206 11.3115 19.4263 19.5579 20.3229 28.0075C21.1515 35.8305 20.9342 43.9244 19.6708 51.6628C18.0949 61.3824 17.5108 67.3428 11.2346 79.179L0 81.5496C1.65734 77.2656 3.59997 73.1847 5.2709 68.9176C6.86032 64.8367 8.24597 60.6374 9.35992 56.3025C10.6776 50.7823 11.4927 45.1098 11.7101 39.3695C11.8052 33.9171 11.3433 28.4647 10.3788 23.1308C9.30558 17.8307 7.7705 12.6831 5.88221 7.73867C4.80901 4.94473 6.30334 1.43955 8.4905 0.389704C10.9358 -0.795606 13.3267 0.846918 14.3863 3.64086Z" fill="var(--fill-0, #609315)"/>
</svg>
