<svg width="18" height="57" viewBox="0 0 18 57" fill="none" xmlns="http://www.w3.org/2000/svg">
<path d="M5.55596 2.51275C3.02435 7.81097 1.20615 13.5076 0.429162 19.3455C-0.288967 24.7505 -0.106318 30.3434 0.977461 35.6914C2.32923 42.4085 2.829 46.5274 8.22791 54.7104L17.9028 56.3564C16.4778 53.395 14.8069 50.5738 13.3702 47.6242C12.0035 44.8033 10.8124 41.9006 9.85545 38.9045C8.72362 35.0893 8.02479 31.1691 7.84082 27.2025C7.76199 23.4349 8.16287 19.6677 8.9966 15.9827C9.92392 12.3213 11.249 8.76543 12.8781 5.35023C13.804 3.42042 12.5189 0.997359 10.6358 0.270399C8.53036 -0.550345 6.47016 0.582931 5.55596 2.51275Z" fill="#609315"/>
</svg>
