<svg width="59" height="39" viewBox="0 0 59 39" fill="none" xmlns="http://www.w3.org/2000/svg">
<rect width="58.3443" height="26.349" rx="3" fill="#B07946"/>
<rect x="2.75208" y="2.2373" width="52.8401" height="21.8747" rx="3" fill="white"/>
<path d="M49.9999 13.5163H39.9814V12.1789H49.9999V13.5163ZM48.8058 11.6655H41.1994V8.17871H48.7342V9.53998H42.9189V10.3281H48.8058V11.6655ZM48.7819 17.015H42.8114V17.5524H49.0446V18.8778H41.1158V15.809H47.0744V15.3433H41.1158V14.0537H48.7819V17.015Z" fill="#997257"/>
<path d="M32.6196 8.75228C33.1808 8.75228 33.6823 8.91348 34.1241 9.23589C34.5659 9.55431 34.9122 10.0101 35.163 10.6031C35.4138 11.1962 35.5411 11.8848 35.5451 12.6689C35.5411 13.465 35.4138 14.1615 35.163 14.7586C34.9122 15.3556 34.5659 15.8154 34.1241 16.1378C33.6823 16.4602 33.1808 16.6214 32.6196 16.6214C32.0504 16.6214 31.5429 16.4602 31.0971 16.1378C30.6513 15.8154 30.303 15.3556 30.0523 14.7586C29.8015 14.1615 29.6781 13.465 29.6821 12.6689C29.6781 11.8848 29.8015 11.1962 30.0523 10.6031C30.303 10.0101 30.6513 9.55431 31.0971 9.23589C31.5429 8.91348 32.0504 8.75228 32.6196 8.75228ZM32.6196 10.3046C32.3609 10.3046 32.136 10.3942 31.9449 10.5733C31.7539 10.7524 31.6066 11.0191 31.5031 11.3733C31.3996 11.7276 31.3499 12.1594 31.3538 12.6689C31.3499 13.1864 31.3996 13.6242 31.5031 13.9824C31.6066 14.3406 31.7539 14.6093 31.9449 14.7884C32.136 14.9675 32.3609 15.0571 32.6196 15.0571C33.0136 15.0571 33.3241 14.8541 33.551 14.4481C33.7778 14.0421 33.8933 13.4491 33.8973 12.6689C33.8933 11.9007 33.7778 11.3156 33.551 10.9136C33.3241 10.5076 33.0136 10.3046 32.6196 10.3046ZM38.3512 12.0599H39.9036V13.4809H38.3512V18.9618H36.6317V8H38.3512V12.0599Z" fill="#997257"/>
<path d="M28.5535 18.9857H26.8459V8H28.5535V18.9857ZM25.1383 13.2182H21.6874V15.0392C22.5432 15.0312 23.3213 15.0014 24.0219 14.9496C24.7264 14.8939 25.4369 14.8063 26.1533 14.6869L26.2966 16.0721C25.4806 16.2194 24.6547 16.3209 23.8189 16.3766C22.987 16.4283 22.0178 16.4542 20.9112 16.4542H19.9082V11.8689H23.383V10.2688H19.9082V8.89557H25.1383V13.2182Z" fill="#997257"/>
<path d="M19.0183 15.4749H14.8271V18.9736H13.1195V15.4749H8.99988V14.0778H19.0183V15.4749ZM13.9793 8.34619C14.7634 8.34619 15.4599 8.44968 16.0689 8.65666C16.6819 8.86363 17.1595 9.15619 17.5018 9.53432C17.8441 9.91245 18.0153 10.3523 18.0153 10.8538C18.0153 11.3474 17.8441 11.7812 17.5018 12.1554C17.1595 12.5255 16.6819 12.8121 16.0689 13.0151C15.4599 13.2141 14.7634 13.3136 13.9793 13.3136C13.1951 13.3136 12.4986 13.2141 11.8896 13.0151C11.2806 12.8121 10.8069 12.5255 10.4686 12.1554C10.1303 11.7812 9.96311 11.3474 9.96709 10.8538C9.96311 10.3523 10.1303 9.91245 10.4686 9.53432C10.8069 9.15619 11.2806 8.86363 11.8896 8.65666C12.4986 8.44968 13.1951 8.34619 13.9793 8.34619ZM13.9793 9.70746C13.2668 9.71542 12.7135 9.81692 12.3195 10.012C11.9294 10.203 11.7344 10.4836 11.7344 10.8538C11.7344 11.212 11.9314 11.4867 12.3254 11.6777C12.7195 11.8688 13.2708 11.9643 13.9793 11.9643C14.6917 11.9643 15.245 11.8688 15.639 11.6777C16.0371 11.4867 16.2361 11.212 16.2361 10.8538C16.2361 10.4836 16.0391 10.203 15.645 10.012C15.251 9.81692 14.6957 9.71542 13.9793 9.70746Z" fill="#997257"/>
<rect width="7.99881" height="13.1745" transform="translate(24.9374 25.4077)" fill="#B07946"/>
</svg>
