<svg width="113" height="137" viewBox="0 0 113 137" fill="none" xmlns="http://www.w3.org/2000/svg">
<path d="M52.6019 99.1735C52.6019 94.9784 51.4271 92.871 50.5738 88.3425C50.4032 87.4495 51.3081 83.3934 51.6216 81.9249C52.7924 76.4836 56.5866 70.2128 56.0231 62.5649C55.7691 59.116 55.908 53.889 56.0747 47.6777C56.1024 46.6617 45.835 35.7752 37.1869 26.5516C31.6742 20.6737 32.6783 12.4741 32.6823 12.5098C33.1784 15.9508 33.0077 17.6455 35.4367 22.7296C36.1272 24.1742 37.5163 25.0752 38.6673 26.5516C43.4696 32.7271 50.2087 38.351 54.0624 41.0855C58.0511 43.9153 56.3287 33.6479 56.3326 32.6636C56.3326 28.3296 54.3323 19.4434 53.7767 14.8633C53.3362 11.2477 53.2528 7.95356 52.5781 5.51272C52.4987 5.21903 53.9632 7.59637 55.0031 14.2997C56.2215 22.1541 56.8406 30.3934 60.2856 15.5579C60.2935 15.5261 60.8968 15.6968 60.8611 16.0381C60.4205 20.1181 58.3528 27.3652 58.3726 28.1986C58.6107 39.9623 58.9838 52.5753 58.4956 61.6322C58.2337 66.498 67.3144 51.4005 72.4025 41.2323C76.3237 33.3978 79.7131 20.1062 79.7091 20.126C79.1495 24.5116 76.0102 39.3352 71.2912 47.3285C65.9253 56.4092 60.4245 65.7201 59.9046 67.5617C59.8371 67.8077 56.7255 74.396 55.1459 81.1073C53.8045 86.8106 53.86 91.5454 57.9083 87.7115C59.1029 86.5804 62.8257 86.4375 64.9887 83.6514C65.9491 82.4964 68.8146 79.2102 70.43 74.3365C72.0453 69.4627 76.4785 66.8235 78.8836 64.0215C80.2926 62.3823 85.5235 58.7746 90.5679 55.54C96.4815 51.7498 102.391 48.2413 102.443 48.2254C102.709 48.1461 102.339 48.8287 102.459 48.9121C102.502 48.9438 97.0847 52.107 91.4291 56.2266C86.2815 59.9732 82.7135 62.6601 80.9831 64.0056C72.9978 70.2367 70.0093 78.3093 73.5733 77.329C86.7578 73.6975 87.877 72.5029 87.9723 72.6418C88.0159 72.7013 87.7659 73.4832 87.6945 73.511C81.5666 75.8407 71.2118 79.242 70.3188 79.7698C69.025 80.5318 68.1757 83.4847 66.0285 86.0962C63.8853 88.7077 56.7176 90.1365 56.7335 95.923C56.7414 98.5226 58.2535 107.147 58.1742 112.291C58.071 118.629 58.2416 127.374 58.7655 131.506C59.0751 133.951 52.5439 134.738 53.1908 130.547C54.6593 121.026 53.6179 116.283 53.5941 111.711C53.5743 108.242 52.6019 104.504 52.6019 99.1735Z" fill="#875E42"/>
<path d="M17.0034 49.6127C14.8206 46.7432 12.7091 44.0047 9.56183 38.7777C8.23624 36.575 8.62915 37.0076 11.2922 40.4685C14.7967 45.0168 16.2414 48.0053 19.6387 50.6605C23.0361 53.3196 29.5767 56.5026 32.2874 60.5508C35.0021 64.5991 35.8158 69.2902 42.3326 77.2041C48.8494 85.118 48.9447 88.4161 52.7191 90.9244C55.9457 93.0676 53.3461 104.03 52.7191 99.64C52.219 96.1514 42.7573 81.7207 42.7573 81.7207C42.7573 81.7207 37.5462 74.1759 34.9624 71.9335C32.3748 69.6911 28.4932 70.8182 23.429 69.1831C22.0716 68.7465 20.873 68.0083 19.9483 67.2344C19.9086 67.1986 19.7776 67.3256 19.8134 67.2423C19.9205 67.0002 20.2142 66.8811 20.3253 66.7541C20.365 66.7105 20.2856 66.8811 20.3333 66.9129C23.2028 68.8219 26.612 68.6949 27.9614 68.9052C28.9179 69.0521 31.7278 70.334 32.9701 67.8337C33.7678 66.2342 30.5848 59.8682 28.2194 58.2211C26.5644 57.0662 19.1823 52.4782 16.9994 49.6087L17.0034 49.6127Z" fill="#875E42"/>
<path d="M21.26 85.1555C19.5315 84.9366 17.8752 84.716 14.9267 84.6639C13.6844 84.6422 13.9604 84.7019 16.0524 84.9786C18.8029 85.3441 20.403 85.2255 22.3349 86.0039C24.2684 86.7814 27.18 88.7463 29.5295 88.9008C31.8799 89.057 34.0407 88.263 38.9276 89.0743C43.8145 89.8855 45.2185 89.1279 47.1799 90.0994C48.8562 90.9303 52.819 87.1933 50.8295 87.9923C49.248 88.6267 40.9214 88.1599 40.9214 88.1599C40.9214 88.1599 36.5042 87.8053 34.9416 87.2673C33.378 86.7276 32.9131 84.8323 31.006 83.1104C30.4956 82.6485 29.8971 82.3259 29.3498 82.1264C29.3253 82.1184 29.3469 82.033 29.3206 82.068C29.2451 82.1714 29.2661 82.3229 29.2398 82.4001C29.2311 82.4273 29.2834 82.3528 29.3081 82.365C30.8001 83.1032 31.5699 84.5592 31.9837 85.0725C32.276 85.4368 33.4911 86.3017 32.7439 87.4255C32.2667 88.1457 28.8326 88.354 27.572 87.7633C26.6889 87.3506 22.9859 85.3736 21.2574 85.1548L21.26 85.1555Z" fill="#875E42"/>
<path d="M85.9595 38.243C87.3079 37.2448 93.9103 33.8065 95.9329 31.7525C97.7459 29.9163 99.5013 28.154 102.001 25.1634C101.84 25.0155 101.688 24.8594 101.544 24.6992C101.22 25.0361 100.883 25.3811 100.533 25.7344C97.2854 28.992 96.6811 30.6352 93.6595 32.6316C90.6338 34.628 84.9523 37.1955 82.4035 40.0669C79.8546 42.9384 78.8392 46.0973 72.8412 51.7909C66.8432 57.4845 66.5308 59.674 63.2008 61.5965C60.356 63.2438 61.9552 64.2133 63.3118 63.8148C66.2142 62.9644 72.167 54.8061 72.167 54.8061C72.167 54.8061 77.0468 49.4494 79.3654 47.7857C81.684 46.122 84.8413 46.5903 89.1826 45.1525C90.346 44.7664 91.3984 44.1954 92.2247 43.6162C92.2617 43.5915 92.3604 43.6655 92.3357 43.6121C92.2618 43.4601 92.0274 43.4026 91.9452 43.3245C91.9164 43.2999 91.9699 43.4067 91.9246 43.4313C89.3964 44.8937 86.2637 45.7605 85.6964 45.0745C85.2278 44.5035 89.643 42.4413 92.1631 41.2459C92.2001 41.2295 92.2618 41.3281 92.2864 41.2993C92.307 41.2747 92.1672 41.172 92.1384 41.061C92.1302 41.0364 92.1014 40.8926 92.0768 40.9008C92.0439 40.9091 92.048 40.9707 92.0151 40.9871C88.3357 42.5276 82.8146 45.9166 80.8495 45.1032C79.6368 44.6021 84.6152 39.2453 85.9595 38.2471V38.243Z" fill="#875E42"/>
<path d="M48.5473 36.9234C47.7456 37.229 46.8605 37.2727 46.0112 37.2171C45.2016 37.1655 43.7212 36.3162 43.618 36.6139C43.495 36.979 45.7334 38.6261 48.8569 37.6259C49.5316 37.4116 49.2022 36.6734 48.5473 36.9234Z" fill="#875E42"/>
<path d="M31.4538 83.6417C30.6497 84.1051 29.7619 84.1713 28.91 84.087C28.0979 84.0088 26.613 82.721 26.5095 83.1723C26.3861 83.726 28.6313 86.2233 31.7643 84.7069C32.4411 84.3819 32.1107 83.2626 31.4538 83.6417Z" fill="#875E42"/>
<path d="M53.0732 81.7759C52.327 81.3513 51.7317 80.6924 51.2356 80.0019C50.7633 79.343 50.4815 77.6602 50.1838 77.7714C49.8227 77.9063 49.9695 80.6805 52.7279 82.4625C53.3232 82.8475 53.6844 82.1252 53.0732 81.7759Z" fill="#875E42"/>
<path d="M52.2409 68.9606C52.5029 69.6393 52.4037 70.9213 52.356 71.719C52.2647 73.2113 50.705 74.2948 50.4391 74.2035C50.1732 74.1122 49.8834 74.6559 49.6255 74.6083C48.7047 74.4377 47.9109 73.0843 46.6806 72.485C45.4383 71.8778 44.9938 70.318 44.7557 69.7306C44.6684 69.5163 43.5888 68.0677 43.6642 66.8016C43.7397 65.4879 42.7236 64.3647 42.6165 64.2814C42.4498 64.1544 43.5095 63.055 45.4185 63.4003C45.9781 63.4995 47.1052 63.3368 47.8157 63.6345C48.9349 64.1028 48.8833 63.9877 50.1414 65.1704C50.7685 65.7578 51.1574 65.988 51.6456 66.8611C51.9155 67.3453 51.9433 68.1709 52.2449 68.9567L52.2409 68.9606Z" fill="url(#paint0_radial_2066_7112)"/>
<path d="M46.2074 66.6113C46.7709 67.1868 47.91 68.4171 48.7038 69.9848C49.6722 71.8938 50.2159 73.2194 50.4977 74.4657C50.6564 75.1642 50.8073 78.1726 50.7953 78.7163C50.7834 79.264 50.2992 78.9584 50.2873 78.6607C50.2754 78.3631 50.1961 75.1285 50.081 74.7474C49.9659 74.3664 49.8508 73.1917 49.0054 71.4096C48.037 69.3657 46.5487 67.3932 46.1478 66.9923C45.8343 66.6828 45.0881 65.8652 44.2983 65.2183C43.576 64.6309 43.0442 64.3213 43.0442 64.3213C43.1474 64.3213 43.8022 64.5674 44.473 65.0833C45.0167 65.5 45.6359 66.0239 46.2113 66.6113H46.2074Z" fill="#6E9337"/>
<path d="M50.4221 75.9461C50.4697 76.5176 47.2906 74.5054 47.7351 74.4975C47.9257 74.4975 42.143 73.1203 39.7816 72.652C36.3842 71.9773 36.1858 72.1202 36.0072 72.0924C35.9636 72.0844 37.8607 70.2905 38.9799 70.1278C40.2737 69.9373 41.8176 68.8379 43.417 69.0284C44.7188 69.1832 46.0325 69.8778 47.3422 70.1715C49.8664 70.743 50.2355 73.7236 50.4221 75.9461Z" fill="url(#paint1_radial_2066_7112)"/>
<path d="M41.5563 73.3701C42.3342 73.5209 44.1758 73.7154 45.668 74.5052C47.4818 75.4696 49.0495 75.9498 49.5258 77.0333C49.8155 77.6882 50.5021 78.6923 50.776 79.1209C51.0538 79.5456 50.4783 79.6329 50.3116 79.4067C50.1449 79.1844 49.498 77.9184 49.2599 77.6326C48.9185 77.2199 48.2438 76.1086 46.4737 75.4418C44.4179 74.6719 43.3304 74.6838 41.7865 74.1202C41.2229 73.9138 39.818 73.12 38.8456 72.8462C37.7939 72.5485 36.0118 72.0881 36.0118 72.0881C36.0992 72.0326 37.9407 72.4057 38.7821 72.4533C39.4608 72.493 40.7665 73.2153 41.5603 73.3701H41.5563Z" fill="#6E9337"/>
<path d="M50.1967 74.8269C50.3714 75.1008 50.7722 77.2757 49.8594 77.5972C49.53 77.7123 49.4426 77.7678 49.2442 77.4186C49.0418 77.0693 47.8273 75.4103 45.8866 74.8309C45.2754 74.6483 43.0012 74.3626 40.9255 73.4537C38.1791 72.2551 36.0398 72.1519 36.0121 72.0884C35.9922 72.0487 37.2781 72.136 39.0959 71.759C39.842 71.6042 41.4454 72.0368 42.648 71.7868C43.7712 71.5526 45.8231 72.402 47.4225 72.7393C48.6568 73.0012 49.6014 73.8823 50.1967 74.8269Z" fill="#92AE69"/>
<path d="M59.1327 69.73C60.0953 69.8042 61.0623 69.5687 61.958 69.2459C62.8136 68.9363 64.1327 67.5799 64.3421 67.8634C64.5917 68.208 62.7111 70.6415 59.0258 70.5674C58.2281 70.5499 58.3484 69.669 59.1372 69.73H59.1327Z" fill="#875E42"/>
<path d="M67.523 59.5389C66.9277 59.9517 66.2887 61.0709 65.8839 61.7575C65.1219 63.0434 65.8085 64.8175 66.0784 64.8889C66.3482 64.9603 66.2847 65.5755 66.5229 65.6787C67.3801 66.0557 68.797 65.3771 70.1544 65.5715C71.5196 65.766 72.7659 64.7222 73.2937 64.373C73.4882 64.242 75.1908 63.6467 75.8417 62.5592C76.5164 61.4281 77.9849 61.0669 78.1198 61.059C78.3302 61.0471 78.0682 59.5429 76.2942 58.761C75.7742 58.5308 74.9329 57.7609 74.1788 57.61C72.9881 57.3719 73.0992 57.3044 71.3926 57.5783C70.5433 57.7132 70.0948 57.6855 69.2018 58.1379C68.7057 58.3879 68.2215 59.0587 67.531 59.5389H67.523Z" fill="url(#paint2_radial_2066_7112)"/>
<path d="M73.8372 60.9755C73.0474 61.1383 71.4162 61.5153 69.8763 62.3686C68.003 63.4084 66.8123 64.1982 65.8797 65.0754C65.3558 65.5675 63.55 67.9726 63.2483 68.429C62.9507 68.8894 63.5261 68.9093 63.7008 68.6672C63.8794 68.4251 65.7566 65.7937 66.0662 65.5437C66.3758 65.2936 67.1298 64.3848 68.8285 63.3807C70.7772 62.2297 73.1149 61.428 73.6705 61.3248C74.1031 61.2414 75.1787 60.9835 76.1987 60.8922C77.1234 60.8088 77.7425 60.8525 77.7425 60.8525C77.6592 60.793 76.9805 60.6302 76.1312 60.6818C75.4446 60.7255 74.6429 60.8088 73.8332 60.9755H73.8372Z" fill="#6E9337"/>
<path d="M65.1153 66.3414C64.7541 66.7898 68.5166 66.9049 68.1515 66.647C67.9967 66.5398 73.5531 68.6393 75.7716 69.572C78.9666 70.9174 79.0459 71.1437 79.2126 71.227C79.2523 71.2469 78.6887 68.6949 77.8553 67.9329C76.8909 67.0478 76.2241 65.2737 74.7993 64.5355C73.6364 63.9323 72.16 63.7735 70.9058 63.2814C68.4928 62.3408 66.5203 64.603 65.1192 66.3374L65.1153 66.3414Z" fill="url(#paint3_radial_2066_7112)"/>
<path d="M73.9019 69.1789C73.1756 68.8694 71.5404 67.9962 69.8616 67.8176C67.8177 67.5993 66.2539 67.1191 65.2498 67.7502C64.6466 68.1312 63.5115 68.5796 63.0431 68.7781C62.5748 68.9765 63.0035 69.3694 63.2654 69.2742C63.5273 69.1829 64.7735 68.5003 65.1307 68.3931C65.6467 68.2423 66.8254 67.6986 68.667 68.1431C70.7983 68.659 71.6952 69.2782 73.2867 69.679C73.8702 69.8259 75.4775 69.9529 76.438 70.2704C77.4778 70.6117 79.2122 71.2308 79.2122 71.2308C79.1725 71.1356 77.4342 70.4133 76.7118 69.9806C76.1284 69.6314 74.6401 69.5004 73.8979 69.1829L73.9019 69.1789Z" fill="#6E9337"/>
<path d="M35.2883 32.0389C35.9788 32.2651 36.9075 33.1581 37.491 33.7018C38.5864 34.7178 38.4355 36.611 38.1934 36.7578C37.9553 36.9047 38.1934 37.4762 37.991 37.6429C37.2766 38.2461 35.7288 38.0001 34.4786 38.5716C33.2245 39.1471 31.7361 38.5002 31.1289 38.3136C30.9066 38.2462 29.1048 38.1588 28.1721 37.3016C27.2037 36.4086 25.6916 36.48 25.5606 36.5118C25.3582 36.5594 25.1796 35.0433 26.656 33.7891C27.0886 33.42 27.68 32.4437 28.3586 32.0865C29.4302 31.519 29.3072 31.4872 31.0217 31.265C31.875 31.1538 32.2957 30.999 33.284 31.1776C33.8277 31.2769 34.4826 31.7809 35.2843 32.0428L35.2883 32.0389Z" fill="url(#paint4_radial_2066_7112)"/>
<path d="M65.9327 65.5438C65.6351 65.6748 64.0832 67.2504 64.6587 68.0283C64.8651 68.3101 64.9088 68.4014 65.2699 68.2267C65.6311 68.0521 67.5719 67.3575 69.5047 67.9648C70.1119 68.1553 72.1559 69.1912 74.3824 69.6039C77.3313 70.1516 79.1569 71.2629 79.2165 71.2272C79.2561 71.2034 78.1409 70.5564 76.8471 69.2269C76.3152 68.6792 74.7436 68.1394 73.8903 67.2583C73.0925 66.4368 70.9136 65.9883 69.4015 65.3691C68.2347 64.8929 66.9567 65.0953 65.9327 65.5438Z" fill="#92AE69"/>
<path d="M32.4701 32.6056C33.2718 32.5381 34.9466 32.4349 36.6612 32.8159C38.7527 33.2803 40.118 33.701 41.261 34.2725C41.904 34.594 44.321 36.3839 44.7377 36.7411C45.1545 37.0983 44.6068 37.2809 44.3686 37.0983C44.1305 36.9157 41.5825 34.9273 41.2134 34.7765C40.8443 34.6217 39.864 33.9669 37.951 33.4867C35.7563 32.935 33.2876 32.8318 32.7241 32.8913C32.2835 32.935 31.1802 32.9945 30.18 33.1969C29.2672 33.3795 28.6877 33.5978 28.6877 33.5978C28.7512 33.5184 29.3585 33.1691 30.184 32.9786C30.8508 32.8239 31.6485 32.677 32.4701 32.6095V32.6056Z" fill="#6E9337"/>
<path d="M39.5316 37.8729C40.0039 38.1983 36.432 39.381 36.7098 39.0278C36.8249 38.881 32.094 42.4767 30.2366 44.0008C27.5576 46.1995 27.5457 46.4416 27.4068 46.5647C27.3751 46.5964 27.1925 43.9889 27.772 43.0205C28.4467 41.8973 28.5776 40.0081 29.7365 38.8929C30.6811 37.984 32.0504 37.4085 33.114 36.587C35.158 34.9994 37.6941 36.6068 39.5316 37.8729Z" fill="url(#paint5_radial_2066_7112)"/>
<path d="M34.3725 40.3595C34.9837 39.8555 36.3014 38.5537 37.8611 37.9028C39.7582 37.113 41.1235 36.2081 42.2626 36.5256C42.9492 36.7161 44.1636 36.8272 44.6677 36.8828C45.1717 36.9384 44.8741 37.4384 44.5962 37.4226C44.3184 37.4067 42.9293 37.109 42.5563 37.109C42.0205 37.109 40.7346 36.9264 39.0954 37.875C37.1983 38.9744 36.5157 39.8237 35.1028 40.6611C34.5868 40.9667 33.0787 41.5502 32.2492 42.1256C31.3482 42.7487 29.8639 43.8322 29.8639 43.8322C29.8758 43.7291 31.3363 42.5424 31.9039 41.9232C32.3643 41.4232 33.7534 40.8755 34.3765 40.3595H34.3725Z" fill="#6E9337"/>
<path d="M41.3489 34.7365C41.6704 34.7762 43.6072 35.8478 43.2777 36.7527C43.1587 37.0821 43.1468 37.1814 42.7499 37.1179C42.353 37.0504 40.2971 36.9393 38.6183 38.0704C38.0905 38.4276 36.4235 39.9992 34.4074 41.0272C31.7363 42.3885 30.3036 43.976 30.2321 43.9601C30.1885 43.9482 31.0735 43.0116 31.9348 41.3685C32.288 40.6938 33.6414 39.7294 34.2089 38.6379C34.7407 37.6219 36.7014 36.5741 37.9754 35.5541C38.9596 34.7643 40.2416 34.5976 41.3489 34.7365Z" fill="#92AE69"/>
<path d="M62.0986 9.43492C62.2653 9.92309 62.1303 10.8677 62.0549 11.4511C61.916 12.5425 60.6698 13.372 60.4753 13.3125C60.2769 13.253 60.0308 13.6578 59.8363 13.626C59.1418 13.5228 58.598 12.5505 57.6852 12.1377C56.7684 11.7249 56.4985 10.5938 56.3437 10.1692C56.2882 10.0144 55.5341 8.97851 55.6492 8.0498C55.7683 7.08537 55.0459 6.28763 54.9665 6.23206C54.8435 6.14475 55.7087 5.31526 57.1494 5.52164C57.5701 5.58117 58.4433 5.43829 58.9711 5.63674C59.8046 5.95424 59.7689 5.8709 60.6737 6.70436C61.1262 7.12109 61.412 7.27984 61.7414 7.90692C61.9239 8.25221 61.9041 8.85944 62.1025 9.42699L62.0986 9.43492Z" fill="url(#paint6_radial_2066_7112)"/>
<path d="M57.6078 7.85494C58.0086 8.26373 58.8222 9.13688 59.3541 10.264C60.005 11.6412 60.3542 12.5937 60.513 13.4986C60.6003 14.0067 60.5725 16.2014 60.5408 16.6023C60.505 17.0031 60.1478 16.7888 60.1558 16.5705C60.1598 16.3522 60.255 13.9908 60.1836 13.713C60.1121 13.4351 60.0804 12.5818 59.5208 11.2959C58.8778 9.82349 57.834 8.41455 57.5482 8.12879C57.322 7.9105 56.7942 7.32709 56.2187 6.87464C55.6948 6.46188 55.3019 6.24756 55.3019 6.24756C55.3813 6.24756 55.8694 6.41028 56.3576 6.77145C56.7545 7.06514 57.203 7.43424 57.6118 7.85097L57.6078 7.85494Z" fill="#6E9337"/>
<path d="M8.8366 41.5997C9.53511 41.7227 10.571 42.5085 11.2179 42.9808C12.4324 43.8699 12.5872 45.886 12.3847 46.0805C12.1784 46.271 12.4959 46.8346 12.3331 47.0449C11.7458 47.799 10.2178 47.795 9.11045 48.6007C7.99917 49.4143 6.4672 48.9778 5.85203 48.8825C5.62581 48.8468 3.88348 49.0532 2.85158 48.307C1.77999 47.5291 0.339302 47.8546 0.220236 47.9101C0.0337005 47.9975 -0.37906 46.4298 0.839375 44.866C1.19657 44.4057 1.60536 43.2825 2.20069 42.7943C3.1413 42.0204 3.01431 42.0045 4.62566 41.4885C5.42736 41.2306 5.80837 40.9964 6.78074 41.0202C7.3205 41.0321 8.03093 41.4568 8.84057 41.5997H8.8366Z" fill="url(#paint7_radial_2066_7112)"/>
<path d="M3.92268 45.8659C4.68073 45.6635 6.27224 45.2785 7.98281 45.3936C10.0665 45.5365 11.4436 45.7508 12.6303 46.1636C13.2971 46.3938 15.9046 47.8781 16.3611 48.1837C16.8175 48.4893 16.3214 48.7711 16.0674 48.6203C15.8094 48.4695 13.0431 46.7986 12.6661 46.6994C12.2851 46.6001 11.2412 46.0723 9.32826 45.8857C7.13349 45.6714 4.74821 45.9731 4.21638 46.1239C3.80362 46.2429 2.75188 46.485 1.82317 46.8661C0.977805 47.2113 0.457886 47.5328 0.457886 47.5328C0.505512 47.4376 1.03337 46.9692 1.79538 46.6319C2.41056 46.358 3.15273 46.0723 3.93063 45.8619L3.92268 45.8659Z" fill="#6E9337"/>
<path d="M14.6154 51.1326C15.4607 50.9977 16.9292 51.4581 17.8421 51.724C19.5526 52.228 20.4655 54.3712 20.3027 54.6609C20.1361 54.9507 20.7036 55.4428 20.5925 55.7365C20.1916 56.7882 18.4453 57.3756 17.473 58.6854C16.4966 60.003 14.5836 60.1221 13.8494 60.253C13.5795 60.3007 11.6586 61.2016 10.206 60.7809C8.69387 60.3443 7.16586 61.2572 7.05076 61.3643C6.86819 61.531 5.82837 59.9792 6.64992 57.7963C6.89202 57.1574 6.95154 55.7683 7.45162 55.0023C8.24539 53.7918 8.09854 53.8235 9.74958 52.6368C10.5711 52.0455 10.9244 51.6446 12.0475 51.2914C12.6667 51.0969 13.6351 51.2835 14.6154 51.1287V51.1326Z" fill="url(#paint8_radial_2066_7112)"/>
<path d="M10.5479 57.6968C11.3417 57.1809 13.0205 56.145 15.0208 55.6132C17.4537 54.9623 19.1087 54.6686 20.6208 54.6607C21.4702 54.6567 24.9905 55.2719 25.6255 55.4267C26.2606 55.5854 25.7962 56.0815 25.4469 56.018C25.0977 55.9545 21.3273 55.1965 20.855 55.2322C20.3827 55.2679 18.9976 55.0972 16.7393 55.633C14.1516 56.2442 11.5282 57.4984 10.9765 57.8715C10.5479 58.1612 9.43265 58.8359 8.50791 59.6058C7.66652 60.3083 7.18628 60.864 7.18628 60.864C7.21009 60.7409 7.63873 60.0265 8.38884 59.3637C8.99607 58.828 9.73825 58.2287 10.5519 57.7008L10.5479 57.6968Z" fill="#6E9337"/>
<path d="M93.9914 44.2825C93.4715 44.7588 92.1816 45.1556 91.3878 45.4096C89.9035 45.8899 88.058 44.9731 88.0104 44.7151C87.9627 44.4571 87.288 44.4135 87.2047 44.1793C86.8951 43.3379 87.796 42.1592 87.7444 40.8891C87.6929 39.6112 88.9708 38.6507 89.4153 38.23C89.5781 38.0752 90.4234 36.6187 91.6815 36.2099C92.9873 35.7812 93.5509 34.5033 93.5747 34.3802C93.6104 34.1937 95.2138 34.6779 95.8568 36.4242C96.0473 36.9362 96.7815 37.8291 96.8569 38.5435C96.976 39.6667 97.0633 39.5794 96.5672 41.0876C96.3211 41.8377 96.2973 42.2544 95.7059 42.9926C95.3765 43.4014 94.5947 43.7348 93.9914 44.2865V44.2825Z" fill="url(#paint9_radial_2066_7112)"/>
<path d="M93.175 38.2975C92.9051 38.9881 92.3058 40.4129 91.1985 41.675C89.8491 43.211 88.8529 44.1635 87.7932 44.8699C87.1979 45.2668 84.3761 46.517 83.8442 46.7115C83.3124 46.906 83.3561 46.3781 83.6379 46.259C83.9197 46.136 86.9955 44.862 87.3091 44.6199C87.6186 44.3778 88.6902 43.842 89.9801 42.4609C91.4565 40.8773 92.5995 38.877 92.7781 38.3888C92.917 38.0078 93.3258 37.0712 93.5401 36.1583C93.7386 35.3288 93.7624 34.7573 93.7624 34.7573C93.814 34.8446 93.9132 35.4916 93.7584 36.2536C93.6314 36.8727 93.4449 37.5911 93.171 38.2975H93.175Z" fill="#6E9337"/>
<path d="M31.023 15.6594C31.4913 16.0722 31.9239 17.0922 32.2017 17.7193C32.7216 18.894 31.9596 20.3427 31.7215 20.3784C31.4833 20.4141 31.4754 20.9459 31.2611 21.0094C30.4911 21.2476 29.3521 20.5292 28.1694 20.561C26.9827 20.5927 26.0262 19.5767 25.6095 19.2274C25.4586 19.0965 24.0616 18.4217 23.6171 17.4256C23.1527 16.3937 21.9343 15.9373 21.8192 15.9214C21.6406 15.8896 22.0176 14.6315 23.6092 14.1354C24.0775 13.9885 24.8712 13.417 25.5301 13.3615C26.5699 13.2742 26.4826 13.2067 27.9114 13.6075C28.6218 13.806 29.0108 13.8258 29.7291 14.3021C30.126 14.564 30.4713 15.1832 31.019 15.6634L31.023 15.6594Z" fill="url(#paint10_radial_2066_7112)"/>
<path d="M28.9149 76.0696C29.3833 76.4823 29.8159 77.5023 30.0937 78.1294C30.6136 79.3042 29.8516 80.7528 29.6134 80.7885C29.3753 80.8243 29.3674 81.3561 29.1531 81.4196C28.3831 81.6577 27.2441 80.9394 26.0613 80.9711C24.8747 81.0029 23.9182 79.9868 23.5014 79.6376C23.3506 79.5066 21.9536 78.8319 21.5091 77.8357C21.0447 76.8038 19.8263 76.3474 19.7112 76.3315C19.5326 76.2998 19.9096 75.0417 21.5011 74.5456C21.9694 74.3987 22.7632 73.8272 23.422 73.7716C24.4619 73.6843 24.3746 73.6168 25.8034 74.0177C26.5138 74.2161 26.9027 74.236 27.6211 74.7122C28.018 74.9742 28.3633 75.5933 28.911 76.0736L28.9149 76.0696Z" fill="url(#paint11_radial_2066_7112)"/>
<path d="M25.4898 16.2624C26.1486 16.4807 27.502 16.9609 28.7323 17.846C30.2286 18.9215 31.1652 19.7153 31.8717 20.5527C32.2686 21.025 33.5743 23.2595 33.7807 23.6802C33.991 24.1009 33.4949 24.0612 33.3679 23.8389C33.2409 23.6167 31.8995 21.1798 31.6613 20.9337C31.4192 20.6877 30.8676 19.8383 29.5182 18.8104C27.9703 17.6356 26.0534 16.7188 25.589 16.5759C25.2278 16.4648 24.3348 16.1354 23.4736 15.9568C22.6917 15.7941 22.1599 15.7703 22.1599 15.7703C22.2393 15.7306 22.8346 15.6552 23.553 15.7861C24.1324 15.8893 24.8111 16.0402 25.4858 16.2624H25.4898Z" fill="#6E9337"/>
<path d="M23.382 76.6726C24.0408 76.8909 25.3942 77.3711 26.6245 78.2561C28.1208 79.3317 29.0574 80.1255 29.7639 80.9629C30.1608 81.4352 31.4665 83.6696 31.6729 84.0903C31.8833 84.511 31.3871 84.4713 31.2601 84.2491C31.1331 84.0268 29.7917 81.59 29.5535 81.3439C29.3114 81.0978 28.7598 80.2485 27.4104 79.2206C25.8625 78.0458 23.9456 77.129 23.4812 76.9861C23.12 76.875 22.2271 76.5456 21.3658 76.367C20.5839 76.2042 20.0521 76.1804 20.0521 76.1804C20.1315 76.1407 20.7268 76.0653 21.4452 76.1963C22.0246 76.2995 22.7033 76.4503 23.378 76.6726H23.382Z" fill="#6E9337"/>
<path d="M26.2159 49.2675C26.0254 49.9858 26.3548 51.2122 26.5453 51.9742C26.9025 53.407 28.8949 54.1134 29.1846 53.9666C29.4743 53.8197 29.9069 54.2841 30.1927 54.1809C31.2325 53.8118 31.9231 52.3195 33.2527 51.4622C34.5902 50.601 34.8442 48.9817 35.0228 48.3586C35.0902 48.1284 36.0944 46.4813 35.8007 45.2669C35.4951 44.0048 36.4793 42.6871 36.5944 42.5839C36.7651 42.4252 35.3522 41.5917 33.1971 42.3458C32.5661 42.5681 31.2286 42.6593 30.4546 43.1039C29.2362 43.8063 29.2759 43.6833 28.0138 45.1121C27.3867 45.8225 26.974 46.1321 26.5533 47.0886C26.3231 47.6164 26.4302 48.4301 26.208 49.2635L26.2159 49.2675Z" fill="url(#paint12_radial_2066_7112)"/>
<path d="M16.0868 41.1193C15.9479 41.9647 16.4004 43.4331 16.6663 44.35C17.1624 46.0645 19.3016 46.9853 19.5913 46.8225C19.881 46.6598 20.3732 47.2274 20.6629 47.1162C21.7146 46.7194 22.31 44.9731 23.6237 44.0086C24.9453 43.0363 25.0723 41.1272 25.2072 40.393C25.2548 40.1231 26.1637 38.2062 25.7509 36.7536C25.3223 35.2415 26.2391 33.7174 26.3463 33.5984C26.513 33.4158 24.9651 32.368 22.7783 33.1816C22.1353 33.4198 20.7502 33.4753 19.9803 33.9754C18.7698 34.7652 18.8015 34.6144 17.6069 36.2614C17.0116 37.079 16.6067 37.4283 16.2535 38.5515C16.0551 39.1706 16.2416 40.139 16.0828 41.1193H16.0868Z" fill="url(#paint13_radial_2066_7112)"/>
<path d="M22.6678 37.0791C22.1479 37.8729 21.1041 39.5438 20.5643 41.5401C19.9055 43.973 19.5999 45.6241 19.588 47.1362C19.58 47.9855 20.1793 51.5099 20.3341 52.1449C20.4889 52.7799 20.989 52.3195 20.9255 51.9663C20.862 51.617 20.1198 47.8426 20.1595 47.3743C20.1992 46.902 20.0325 45.5169 20.5762 43.2586C21.1993 40.6709 22.4614 38.0555 22.8385 37.5078C23.1321 37.0791 23.8069 35.9679 24.5848 35.0471C25.2912 34.2097 25.8468 33.7334 25.8468 33.7334C25.7238 33.7532 25.0094 34.1819 24.3427 34.932C23.8029 35.5353 23.1996 36.2774 22.6678 37.0871V37.0791Z" fill="#6E9337"/>
<path d="M92.5543 51.3429C92.5261 51.9745 91.9644 52.9666 91.6287 53.5845C90.9963 54.7447 89.2652 55.0709 89.0744 54.9061C88.8837 54.7413 88.435 55.0743 88.2336 54.9473C87.5129 54.4941 87.3398 53.1382 86.5166 52.232C85.6864 51.3188 85.8878 49.9183 85.9019 49.369C85.9055 49.1665 85.5274 47.6355 86.0609 46.6537C86.612 45.6307 86.1669 44.3812 86.1033 44.2817C86.0079 44.1238 87.3186 43.6123 88.813 44.546C89.2511 44.8206 90.2721 45.0781 90.7667 45.5621C91.5439 46.3242 91.5439 46.2109 92.1763 47.5909C92.4907 48.2774 92.738 48.5932 92.8264 49.4617C92.8758 49.9389 92.5932 50.6117 92.5579 51.3429H92.5543Z" fill="url(#paint14_radial_2066_7112)"/>
<path d="M88.3776 47.3447C88.6394 48.0067 89.1455 49.3932 89.2397 50.9356C89.3514 52.8142 89.3234 54.0689 89.1036 55.1746C88.9814 55.795 88.0042 58.2698 87.7948 58.7066C87.5854 59.1433 87.2887 58.7273 87.39 58.4813C87.4912 58.2352 88.608 55.6009 88.6499 55.2543C88.6917 54.9043 89.0268 53.9199 88.9709 52.1868C88.9081 50.2008 88.3811 48.0899 88.1892 47.6289C88.0391 47.2685 87.7145 46.3499 87.2853 45.5527C86.8944 44.8283 86.5593 44.3916 86.5593 44.3916C86.6466 44.4263 87.1038 44.8526 87.4807 45.5077C87.7843 46.0345 88.1124 46.6723 88.3776 47.3482V47.3447Z" fill="#6E9337"/>
<path d="M34.617 21.8356C35.256 22.0579 36.1252 23.0104 36.6689 23.5898C37.6929 24.6773 37.5699 26.8086 37.3516 26.9832C37.1333 27.1578 37.3555 27.7889 37.173 27.9834C36.5181 28.6978 35.0854 28.4953 33.9384 29.1978C32.7834 29.9043 31.4023 29.2494 30.8427 29.0708C30.6363 29.0034 28.9694 28.9954 28.1002 28.0786C27.1953 27.1261 25.7983 27.2809 25.6792 27.3206C25.4927 27.3841 25.3141 25.6933 26.6635 24.213C27.0604 23.7764 27.5922 22.6572 28.2193 22.2206C29.2035 21.534 29.0884 21.5022 30.668 21.1689C31.4539 21.0022 31.8428 20.8077 32.7557 20.9585C33.2597 21.0418 33.8709 21.5776 34.6131 21.8316L34.617 21.8356Z" fill="url(#paint15_radial_2066_7112)"/>
<path d="M29.4378 25.6659C30.18 25.5508 31.7239 25.3524 33.3154 25.6977C35.2522 26.1184 36.5183 26.5232 37.5819 27.1066C38.1772 27.436 40.4315 29.3252 40.8205 29.7062C41.2094 30.0833 40.7054 30.3174 40.4831 30.123C40.2609 29.9324 37.8835 27.825 37.5422 27.6702C37.2009 27.5154 36.2881 26.8288 34.514 26.3843C32.4819 25.8723 30.1999 25.8803 29.6799 25.9715C29.2751 26.043 28.2551 26.162 27.3304 26.4359C26.489 26.6859 25.9572 26.9558 25.9572 26.9558C26.0167 26.8645 26.5723 26.4399 27.3343 26.1859C27.9495 25.9795 28.6838 25.7771 29.4418 25.658L29.4378 25.6659Z" fill="#6E9337"/>
<path d="M52.2961 14.6389C52.7644 15.0517 53.197 16.0717 53.4748 16.6988C53.9948 17.8735 53.2327 19.3222 52.9946 19.3579C52.7565 19.3936 52.7485 19.9254 52.5342 19.9889C51.7643 20.2271 50.6252 19.5087 49.4465 19.5405C48.2598 19.5722 47.3033 18.5562 46.8866 18.2069C46.7357 18.0759 45.3387 17.4012 44.8942 16.4051C44.4298 15.3692 43.2114 14.9167 43.0963 14.9009C42.9177 14.8731 43.2948 13.611 44.8863 13.1149C45.3546 12.968 46.1484 12.3965 46.8072 12.341C47.847 12.2536 47.7597 12.1862 49.1885 12.587C49.8989 12.7855 50.2879 12.8053 51.0062 13.2816C51.4031 13.5435 51.7484 14.1627 52.2961 14.6429V14.6389Z" fill="url(#paint16_radial_2066_7112)"/>
<path d="M46.763 15.2429C47.4218 15.4612 48.7752 15.9414 50.0055 16.8264C51.5018 17.902 52.4384 18.6958 53.1449 19.5332C53.5418 20.0055 54.8475 22.24 55.0539 22.6607C55.2642 23.0813 54.7681 23.0417 54.6411 22.8194C54.5141 22.5972 53.1727 20.1603 52.9345 19.9142C52.6924 19.6681 52.1408 18.8188 50.7914 17.7909C49.2435 16.6161 47.3265 15.6993 46.8622 15.5564C46.501 15.4453 45.608 15.1159 44.7468 14.9373C43.9649 14.7746 43.4331 14.7507 43.4331 14.7507C43.5125 14.7111 44.1078 14.6356 44.8262 14.7666C45.4056 14.8698 46.0843 15.0206 46.759 15.2429H46.763Z" fill="#6E9337"/>
<path d="M75.4311 35.4912C74.7048 35.9476 73.8991 37.2573 73.3911 38.059C72.4307 39.5632 73.153 41.7778 73.4705 41.8889C73.784 42.0001 73.6809 42.7422 73.9587 42.8891C74.9509 43.4169 76.6535 42.7105 78.249 43.0598C79.8524 43.409 81.3685 42.2422 82.0075 41.8572C82.2417 41.7143 84.2817 41.1309 85.0992 39.8609C85.9486 38.5392 87.7028 38.2217 87.8616 38.2257C88.1076 38.2297 87.8695 36.3762 85.8176 35.2729C85.2143 34.9474 84.2578 33.9433 83.3767 33.6972C81.9837 33.3083 82.1147 33.2329 80.0906 33.4274C79.0825 33.5226 78.5546 33.4512 77.4751 33.9274C76.8797 34.1894 76.2765 34.9673 75.4351 35.4951L75.4311 35.4912Z" fill="url(#paint17_radial_2066_7112)"/>
<path d="M82.8138 37.7608C81.8732 37.8957 79.9324 38.2172 78.075 39.13C75.8167 40.2413 74.3721 41.1065 73.229 42.0948C72.5861 42.6504 70.3397 45.4286 69.9627 45.9644C69.5896 46.5002 70.2683 46.5716 70.4866 46.2898C70.7088 46.012 73.0504 42.96 73.4275 42.6782C73.8085 42.3964 74.7372 41.3566 76.7891 40.2731C79.1426 39.0308 81.9407 38.249 82.5995 38.1696C83.1154 38.1061 84.3934 37.8799 85.5999 37.8521C86.6953 37.8283 87.4216 37.9315 87.4216 37.9315C87.3224 37.8521 86.5287 37.5981 85.5285 37.5901C84.7189 37.5862 83.7624 37.6219 82.8059 37.7568L82.8138 37.7608Z" fill="#6E9337"/>
<path d="M74.6392 27.4191C75.0559 28.1653 75.1274 29.7052 75.1869 30.6537C75.302 32.4318 73.5994 34.0272 73.2699 33.9717C72.9405 33.9161 72.6746 34.6146 72.3611 34.6107C71.2339 34.5948 70.0869 33.1541 68.5232 32.6897C66.9515 32.2214 66.1856 30.4672 65.8085 29.8242C65.6696 29.5861 64.1654 28.0899 64.0622 26.5817C63.9551 25.014 62.5739 23.8908 62.431 23.8154C62.2127 23.7003 63.3161 22.1921 65.6458 22.216C66.3284 22.2239 67.654 21.8032 68.547 22.0136C69.956 22.3469 69.8726 22.216 71.5554 23.363C72.3928 23.9345 72.8889 24.125 73.6033 25.0616C73.9962 25.5776 74.151 26.5499 74.6352 27.4191H74.6392Z" fill="url(#paint18_radial_2066_7112)"/>
<path d="M67.0774 25.8439C67.8355 26.4155 69.3833 27.6339 70.566 29.3326C72.0107 31.3964 72.8561 32.849 73.38 34.2658C73.6737 35.0596 74.3047 38.58 74.3722 39.2309C74.4436 39.8817 73.8126 39.6158 73.757 39.2626C73.6975 38.9133 73.118 35.1112 72.9235 34.6826C72.7291 34.2539 72.4155 32.8926 71.1376 30.9518C69.677 28.7293 67.6013 26.6933 67.0615 26.3043C66.6409 25.9987 65.6288 25.1851 64.585 24.5779C63.6364 24.0262 62.9498 23.7682 62.9498 23.7682C63.0729 23.7484 63.8904 23.9071 64.7715 24.3834C65.482 24.7684 66.3035 25.2605 67.0774 25.8439Z" fill="#6E9337"/>
<path d="M70.8323 39.6499C71.0615 40.1672 71.031 41.1887 71.0233 41.8222C71.008 43.0074 69.8417 43.9761 69.6329 43.9233C69.4241 43.8705 69.2204 44.3193 69.0192 44.3008C68.3011 44.2322 67.6365 43.2186 66.6586 42.8305C65.6756 42.4399 65.2733 41.2362 65.0645 40.7902C64.9881 40.6265 64.0993 39.5575 64.1095 38.5518C64.1172 37.5065 63.2896 36.6909 63.203 36.6328C63.068 36.5457 63.8498 35.6008 65.3395 35.738C65.7775 35.7776 66.6433 35.5691 67.2035 35.7539C68.0872 36.0468 68.0439 35.9571 69.0625 36.8018C69.5693 37.2215 69.8799 37.3746 70.2899 38.0318C70.5166 38.3934 70.5675 39.048 70.8323 39.6472V39.6499Z" fill="url(#paint19_radial_2066_7112)"/>
<path d="M66.1655 38.0358C66.6297 38.4484 67.5762 39.3287 68.2634 40.5014C69.101 41.9302 69.5781 42.9253 69.8478 43.8813C69.9982 44.4168 70.2316 46.7597 70.2446 47.1881C70.2576 47.6164 69.8608 47.4127 69.8401 47.1776C69.8193 46.9451 69.6326 44.4194 69.5263 44.1295C69.42 43.8369 69.2851 42.928 68.5512 41.5906C67.711 40.0574 66.4611 38.6182 66.1318 38.3335C65.8725 38.1115 65.2553 37.5264 64.6044 37.0746C64.0131 36.6645 63.5801 36.4607 63.5801 36.4607C63.6605 36.4529 64.1869 36.5992 64.7366 36.957C65.1801 37.2469 65.6883 37.61 66.1655 38.0331V38.0358Z" fill="#6E9337"/>
<path d="M56.705 57.3163C57.0146 57.8799 57.0781 59.0626 57.1257 59.7928C57.217 61.1621 55.9549 62.4401 55.7089 62.4083C55.4628 62.3766 55.2683 62.9243 55.0342 62.9282C54.1967 62.952 53.3355 61.8765 52.1686 61.5669C50.9939 61.2574 50.4184 59.9278 50.1366 59.4396C50.0334 59.261 48.9102 58.1537 48.8269 56.9948C48.7396 55.7883 47.7116 54.9667 47.6045 54.9151C47.4418 54.8318 48.2554 53.6372 49.9937 53.5816C50.5017 53.5657 51.486 53.2006 52.1528 53.3355C53.2005 53.5459 53.141 53.4506 54.3991 54.2801C55.0222 54.6929 55.3953 54.8278 55.9311 55.5263C56.2248 55.9113 56.3439 56.6575 56.705 57.3123V57.3163Z" fill="url(#paint20_radial_2066_7112)"/>
<path d="M51.0691 56.3358C51.6366 56.7525 52.7916 57.6455 53.6806 58.9155C54.7601 60.4634 55.3951 61.5548 55.792 62.6304C56.0143 63.2336 56.4945 65.9285 56.5461 66.4246C56.6017 66.9207 56.1294 66.7381 56.0857 66.4682C56.042 66.1983 55.5975 63.2892 55.4507 62.9637C55.3038 62.6383 55.0657 61.5985 54.1092 60.1459C53.0138 58.4789 51.462 56.9748 51.0572 56.689C50.7436 56.4667 49.9856 55.8714 49.2077 55.4348C48.4973 55.0419 47.9893 54.8633 47.9893 54.8633C48.0805 54.8435 48.6917 54.9387 49.3506 55.2801C49.8824 55.5539 50.4936 55.9111 51.073 56.3358H51.0691Z" fill="#6E9337"/>
<path d="M57.7359 45.6236C57.3629 46.2229 57.3033 47.612 57.2517 48.4693C57.1565 50.0727 58.7202 51.8825 59.0218 51.8983C59.3235 51.9142 59.5695 52.6127 59.8553 52.6723C60.8832 52.8906 61.9231 51.811 63.3479 51.7078C64.7806 51.6046 65.4712 50.16 65.8086 49.648C65.9316 49.4615 67.2969 48.4018 67.3842 47.0444C67.4755 45.6315 68.7257 44.8894 68.8566 44.8497C69.0551 44.7901 68.039 43.1828 65.9117 42.7224C65.2886 42.5874 64.0781 41.9326 63.2645 41.9405C61.9826 41.9524 62.054 41.8532 60.526 42.5517C59.768 42.901 59.3116 42.9724 58.6646 43.6828C58.3074 44.0757 58.1725 44.929 57.7359 45.6276V45.6236Z" fill="url(#paint21_radial_2066_7112)"/>
<path d="M64.6265 45.7467C63.9359 46.1119 62.5309 46.9096 61.4594 48.2154C60.1536 49.8069 59.3876 50.9618 58.9193 52.1445C58.6534 52.8113 58.1017 55.899 58.0422 56.4785C57.9827 57.0579 58.5542 56.9468 58.6058 56.6372C58.6574 56.3277 59.1654 52.97 59.34 52.6208C59.5186 52.2675 59.7964 51.0888 60.9474 49.5767C62.269 47.8463 64.1502 46.4135 64.6424 46.1674C65.0234 45.9769 65.9441 45.4372 66.8927 45.0998C67.7579 44.7942 68.381 44.695 68.381 44.695C68.2699 44.6513 67.5238 44.6275 66.722 44.8815C66.0751 45.0879 65.329 45.3697 64.6265 45.7428V45.7467Z" fill="#6E9337"/>
<path d="M94.2239 56.935C93.6835 56.7524 92.6738 56.8985 92.048 56.9789C90.8783 57.1287 90.0677 58.4803 90.146 58.6922C90.2242 58.9077 89.8046 59.178 89.8509 59.3863C90.0108 60.1424 91.0988 60.7306 91.6072 61.7206C92.1191 62.7178 93.36 63.0064 93.8293 63.1781C93.9999 63.2402 95.1732 64.0585 96.1651 63.9343C97.1997 63.8065 98.1099 64.5882 98.1774 64.6759C98.2805 64.8074 99.116 63.8722 98.7889 62.3087C98.6929 61.8484 98.7889 60.9059 98.5365 60.3324C98.1347 59.4301 98.2272 59.4666 97.2601 58.4839C96.7802 57.9944 96.5882 57.6839 95.8842 57.3223C95.4967 57.125 94.8461 57.1433 94.2168 56.9314L94.2239 56.935Z" fill="url(#paint22_radial_2066_7112)"/>
<path d="M96.2532 61.8961C95.8007 61.4763 94.8374 60.6332 93.6239 60.077C92.1464 59.4019 91.1283 59.0345 90.1719 58.8701C89.6371 58.7792 87.3506 58.8037 86.9358 58.8386C86.521 58.8736 86.7644 59.2444 86.9941 59.2409C87.2203 59.2339 89.6782 59.143 89.9696 59.2165C90.2644 59.2899 91.1557 59.3249 92.5338 59.9091C94.1141 60.5772 95.6533 61.6617 95.9653 61.9625C96.2086 62.1969 96.8497 62.7461 97.3639 63.3443C97.8301 63.8865 98.0804 64.2958 98.0804 64.2958C98.0804 64.2154 97.8747 63.7081 97.4599 63.1974C97.1274 62.7846 96.7126 62.3193 96.2498 61.8926L96.2532 61.8961Z" fill="#6E9337"/>
<path d="M86.0981 61.9651C85.3548 61.8466 84.0637 62.2509 83.2612 62.4844C81.7572 62.9271 80.9546 64.8091 81.0977 65.0636C81.2443 65.318 80.7453 65.7502 80.843 66.0081C81.1954 66.9317 82.7308 67.4475 83.5857 68.5976C84.4441 69.7548 86.126 69.8593 86.7716 69.9743C87.0088 70.0162 88.6977 70.8073 89.9749 70.4379C91.3044 70.0545 92.6478 70.8561 92.749 70.9502C92.9095 71.0966 93.8237 69.7338 93.1014 67.8169C92.8886 67.2558 92.8362 66.036 92.3931 65.3633C91.6952 64.3003 91.8243 64.3282 90.3727 63.2861C89.6504 62.7668 89.3398 62.4147 88.3523 62.1045C87.8079 61.9338 86.9565 62.0976 86.0946 61.9617L86.0981 61.9651Z" fill="url(#paint23_radial_2066_7112)"/>
<path d="M89.6402 67.7648C88.9433 67.3086 87.4693 66.3926 85.7131 65.9223C83.577 65.3468 82.1239 65.0871 80.7963 65.0801C80.0506 65.0766 76.9597 65.6205 76.4022 65.7574C75.8447 65.8943 76.2524 66.3365 76.559 66.2803C76.8657 66.2206 80.176 65.5539 80.5907 65.5854C81.0054 65.617 82.2215 65.4661 84.2042 65.9399C86.4762 66.4803 88.7795 67.5893 89.2639 67.9192C89.6402 68.1754 90.6194 68.772 91.4313 69.4563C92.17 70.0774 92.5917 70.5688 92.5917 70.5688C92.5708 70.46 92.1944 69.8283 91.5358 69.2422C91.0027 68.7685 90.3511 68.2385 89.6367 67.7683L89.6402 67.7648Z" fill="#6E9337"/>
<path d="M85.0596 56.185C85.0194 56.9286 84.3791 58.0977 83.997 58.824C83.2797 60.1902 81.3457 60.5741 81.1346 60.3804C80.9234 60.1867 80.4173 60.5776 80.196 60.4323C79.3983 59.8996 79.224 58.3017 78.3156 57.233C77.4006 56.1573 77.6419 54.5075 77.6654 53.8573C77.6721 53.6186 77.2732 51.8167 77.8765 50.658C78.5067 49.4509 78.024 47.981 77.957 47.8599C77.8531 47.6731 79.3212 47.0713 80.9737 48.1747C81.4597 48.4963 82.5926 48.8041 83.1356 49.3714C83.9937 50.2706 83.9937 50.1357 84.6775 51.7613C85.0194 52.5707 85.2875 52.9442 85.378 53.9645C85.4283 54.5283 85.0998 55.3169 85.0562 56.1815L85.0596 56.185Z" fill="url(#paint24_radial_2066_7112)"/>
<path d="M80.4393 51.7424C80.7382 52.5105 81.3218 54.1223 81.4097 55.9167C81.5187 58.1003 81.4659 59.5572 81.1917 60.8419C81.037 61.5617 79.8487 64.4376 79.5955 64.9473C79.3424 65.4571 78.9943 64.9715 79.1174 64.6856C79.2404 64.3997 80.5975 61.3413 80.6538 60.9349C80.71 60.5285 81.1179 59.385 81.0757 57.3702C81.03 55.0626 80.4323 52.6103 80.2143 52.073C80.042 51.6563 79.6693 50.5886 79.1701 49.6621C78.7201 48.8183 78.3263 48.312 78.3263 48.312C78.4283 48.3533 78.9662 48.8493 79.4021 49.607C79.7537 50.2201 80.1335 50.9606 80.4393 51.7458V51.7424Z" fill="#6E9337"/>
<path d="M42.884 27.2512C42.8403 27.9418 43.2888 29.1285 43.5587 29.8667C44.0588 31.2518 45.7574 31.9622 45.9678 31.8233C46.1781 31.6844 46.5909 32.1369 46.8052 32.0416C47.5791 31.7003 47.9046 30.2675 48.8373 29.4579C49.7739 28.6403 49.7342 27.0845 49.7818 26.4852C49.8017 26.263 50.3534 24.6873 49.9327 23.5126C49.4961 22.2902 50.0874 21.032 50.1589 20.9368C50.274 20.786 49.0159 19.9644 47.4124 20.6669C46.9401 20.8733 45.8884 20.9447 45.3407 21.3654C44.4755 22.0282 44.4874 21.9092 43.6976 23.2705C43.3047 23.9491 43.0229 24.2389 42.8324 25.1596C42.7252 25.6676 42.9356 26.4495 42.884 27.2512Z" fill="url(#paint25_radial_2066_7112)"/>
<path d="M47.6064 23.8418C47.269 24.4967 46.5943 25.8778 46.3244 27.513C45.999 29.5014 45.8839 30.8547 45.9831 32.0811C46.0387 32.7717 46.7491 35.6253 46.9118 36.1413C47.0745 36.6532 47.4238 36.2683 47.3484 35.9865C47.273 35.7047 46.4395 32.6487 46.4356 32.2637C46.4356 31.8787 46.2054 30.7555 46.4554 28.91C46.7451 26.7946 47.519 24.6435 47.7651 24.1871C47.9556 23.8339 48.3922 22.9171 48.9161 22.1511C49.3924 21.4565 49.7853 21.0557 49.7853 21.0557C49.694 21.0755 49.178 21.4367 48.7256 22.0598C48.3565 22.5638 47.9517 23.175 47.6064 23.8458V23.8418Z" fill="#6E9337"/>
<path d="M51.8029 2.31401C52.184 2.66327 52.5094 3.56023 52.7237 4.10793C53.1206 5.13586 52.4221 6.45749 52.2197 6.49718C52.0173 6.53687 51.9895 7.01313 51.8069 7.07663C51.1481 7.31873 50.2075 6.71943 49.2073 6.79087C48.2032 6.86231 47.4293 5.9971 47.0919 5.69547C46.9689 5.58434 45.81 5.03267 45.4726 4.1635C45.1194 3.2586 44.1034 2.9014 44.0081 2.8895C43.8613 2.86965 44.2224 1.73059 45.5917 1.22655C45.9925 1.0797 46.6871 0.53597 47.2467 0.464531C48.1318 0.349435 48.0603 0.289903 49.2549 0.595504C49.8503 0.74632 50.1757 0.750289 50.7671 1.14717C51.0925 1.36546 51.3624 1.90522 51.8069 2.31401H51.8029Z" fill="url(#paint26_radial_2066_7112)"/>
<path d="M47.0965 3.06447C47.6442 3.23513 48.7753 3.61217 49.7794 4.35435C51.0058 5.25528 51.7678 5.92998 52.3354 6.64834C52.6529 7.05316 53.6729 8.9979 53.8356 9.367C53.9983 9.7361 53.5816 9.72023 53.4824 9.52575C53.3831 9.33128 52.3393 7.20795 52.1449 6.9976C51.9504 6.78725 51.5138 6.04904 50.4105 5.1878C49.1444 4.19559 47.5569 3.45342 47.1679 3.34229C46.8663 3.25498 46.1241 2.997 45.4018 2.87C44.7469 2.7549 44.2985 2.7549 44.2985 2.7549C44.3659 2.71521 44.8739 2.6279 45.4772 2.71521C45.9654 2.78665 46.5329 2.89381 47.0925 3.06844L47.0965 3.06447Z" fill="#6E9337"/>
<path d="M22.1042 66.536C22.513 66.9408 18.7863 67.4726 19.1196 67.1789C19.2586 67.0559 13.9721 69.7587 11.8725 70.9334C8.84828 72.6242 8.79271 72.8623 8.63792 72.9576C8.59823 72.9814 8.88002 70.3857 9.6222 69.5324C10.4834 68.5482 10.9438 66.7106 12.2813 65.8176C13.3728 65.0913 14.8214 64.7659 16.012 64.1388C18.306 62.9362 20.5167 64.9643 22.1042 66.536Z" fill="url(#paint27_radial_2066_7112)"/>
<path d="M13.6913 70.33C14.3779 69.9411 15.9098 68.8933 17.5569 68.5282C19.5652 68.0837 21.0654 67.4328 22.133 67.9487C22.7759 68.2583 23.9507 68.5798 24.4389 68.7227C24.9271 68.8695 24.5421 69.3061 24.2722 69.2426C24.0023 69.1791 22.6886 68.6393 22.3195 68.5758C21.7917 68.4806 20.5574 68.0718 18.7793 68.7187C16.7155 69.4648 15.8979 70.1832 14.358 70.7587C13.7984 70.969 12.2109 71.2746 11.2901 71.6953C10.2939 72.1517 8.63892 72.9574 8.63892 72.9574C8.67067 72.8582 10.3138 71.9454 10.9845 71.4374C11.5243 71.0246 12.9888 70.7309 13.6913 70.33Z" fill="#6E9337"/>
<path d="M21.2038 65.8333C21.5134 65.9285 23.2319 67.3216 22.7477 68.159C22.5731 68.4606 22.5413 68.5599 22.1643 68.4249C21.7872 68.29 19.779 67.8177 17.9295 68.6353C17.3461 68.8933 15.4291 70.1514 13.2621 70.8062C10.3927 71.6754 8.70194 72.9851 8.63843 72.9573C8.59875 72.9415 9.63461 72.1715 10.7697 70.707C11.238 70.1037 12.7383 69.3933 13.4923 68.421C14.1948 67.5121 16.3062 66.8255 17.743 66.0476C18.8503 65.4443 20.1402 65.5039 21.2078 65.8372L21.2038 65.8333Z" fill="#92AE69"/>
<path d="M8.55949 39.3815C8.97622 39.6157 8.60315 36.5874 8.43646 36.9129C8.36502 37.0478 9.4128 32.3447 9.91287 30.4556C10.6273 27.7329 10.8059 27.6416 10.8535 27.4988C10.8654 27.463 8.82541 28.2251 8.29755 28.9831C7.68635 29.8642 6.30122 30.6064 5.86464 31.8407C5.51142 32.8448 5.55904 34.0474 5.31297 35.111C4.83274 37.155 6.94813 38.4647 8.56345 39.3775L8.55949 39.3815Z" fill="url(#paint28_radial_2066_7112)"/>
<path d="M9.81661 32.0031C9.64992 32.6223 9.13 34.0391 9.18954 35.4044C9.26098 37.0674 9.05856 38.381 9.70548 39.1073C10.0944 39.5479 10.6064 40.4012 10.8287 40.7504C11.0509 41.0997 11.3208 40.7108 11.2137 40.5123C11.1025 40.3139 10.3842 39.3971 10.2532 39.1232C10.0627 38.7263 9.46735 37.8492 9.60626 36.3212C9.76501 34.5511 10.1698 33.7573 10.3008 32.4357C10.3484 31.9515 10.2572 30.6458 10.4 29.8401C10.5548 28.9669 10.8485 27.5024 10.8485 27.5024C10.7771 27.5461 10.3921 29.0225 10.1262 29.6536C9.91186 30.1616 9.98727 31.3681 9.81661 32.0031Z" fill="#6E9337"/>
<path d="M7.79736 38.8257C7.94421 39.0479 9.44047 40.0997 10.012 39.548C10.2184 39.3495 10.2898 39.3019 10.0993 39.036C9.90879 38.7661 9.09517 37.2976 9.35711 35.6744C9.44046 35.1624 10.0437 33.4002 10.1072 31.5706C10.1906 29.1417 10.8891 27.5462 10.8494 27.5025C10.8256 27.4748 10.4287 28.4471 9.48809 29.6417C9.10311 30.1339 8.84911 31.4555 8.226 32.2493C7.64258 32.9875 7.54336 34.7854 7.22188 36.0713C6.97185 37.0635 7.29728 38.0636 7.79736 38.8296V38.8257Z" fill="#92AE69"/>
<path d="M76.2898 27.3748C76.4367 27.9304 78.7584 24.9697 78.3338 25.1126C78.1552 25.1721 83.144 21.9414 85.2078 20.7111C88.1845 18.937 88.4146 19.0085 88.5774 18.9212C88.6171 18.9013 86.2278 17.8456 85.1205 18.0639C83.8346 18.3179 82.0129 17.798 80.5722 18.5124C79.3974 19.0918 78.3933 20.1872 77.2542 20.9056C75.0674 22.2907 75.7183 25.2197 76.2858 27.3788L76.2898 27.3748Z" fill="url(#paint29_radial_2066_7112)"/>
<path d="M83.7823 21.9853C83.0997 22.3862 81.4288 23.1879 80.2898 24.4302C78.9007 25.9462 77.587 26.9226 77.4997 28.1013C77.4481 28.8118 77.1345 29.9945 77.0194 30.4866C76.9004 30.9827 77.4719 30.8676 77.5513 30.6017C77.6306 30.3358 77.8211 28.9269 77.9481 28.5776C78.1307 28.0736 78.3927 26.7996 79.8413 25.5811C81.5201 24.1682 82.548 23.815 83.8181 22.7672C84.2785 22.3862 85.3381 21.1678 86.1637 20.5804C87.0566 19.9454 88.5807 18.9174 88.5807 18.9174C88.4815 18.8936 86.8661 19.862 86.0922 20.1875C85.4651 20.4494 84.4769 21.5686 83.7823 21.9814V21.9853Z" fill="#6E9337"/>
<path d="M76.1307 26.2441C76.0592 26.5616 76.4085 28.7445 77.3729 28.7445C77.7222 28.7445 77.8214 28.7643 77.8968 28.3714C77.9683 27.9745 78.5596 26.002 80.1948 24.8074C80.7107 24.4303 82.7547 23.3984 84.4057 21.8506C86.5926 19.7987 88.573 18.989 88.581 18.9216C88.5849 18.8779 87.4022 19.3899 85.5646 19.6399C84.8105 19.7431 83.4413 20.6877 82.2268 20.8544C81.0918 21.0092 79.4407 22.4975 78.0476 23.3508C76.9721 24.0096 76.3768 25.1566 76.1307 26.2481V26.2441Z" fill="#92AE69"/>
<path d="M52.927 7.7157C53.0302 8.17608 54.6972 5.73128 54.3955 5.84637C54.2685 5.894 57.8444 3.22693 59.3248 2.21091C61.4601 0.746404 61.6228 0.801968 61.7419 0.734497C61.7696 0.718622 60.0591 -0.154523 59.2653 0.024075C58.3445 0.234424 57.0388 -0.194211 56.0029 0.393178C55.1615 0.873408 54.4392 1.77434 53.6256 2.36966C52.0579 3.51269 52.5222 5.93369 52.931 7.7157H52.927Z" fill="url(#paint30_radial_2066_7112)"/>
<path d="M58.2969 3.2624C57.8087 3.59579 56.6101 4.25461 55.7925 5.28255C54.7964 6.53273 53.8557 7.34238 53.7922 8.31474C53.7565 8.90213 53.5303 9.8745 53.447 10.2833C53.3636 10.6921 53.7724 10.5968 53.828 10.3785C53.8875 10.1603 54.0224 8.99739 54.1137 8.70766C54.2447 8.29093 54.4312 7.23919 55.4711 6.23507C56.6736 5.06823 57.4118 4.7785 58.3207 3.9133C58.6501 3.59976 59.4121 2.59167 60.0035 2.10747C60.6425 1.58358 61.7339 0.734249 61.7339 0.734249C61.6625 0.714404 60.5075 1.51611 59.9479 1.78203C59.4994 2.00031 58.793 2.92505 58.2929 3.2624H58.2969Z" fill="#6E9337"/>
<path d="M52.8106 6.78306C52.759 7.04501 53.0091 8.84686 53.7036 8.84686C53.9536 8.84686 54.0251 8.86274 54.0767 8.53729C54.1283 8.21185 54.5529 6.58065 55.7237 5.59638C56.0928 5.28681 57.5574 4.43351 58.744 3.15554C60.3117 1.46084 61.7326 0.794075 61.7366 0.734542C61.7366 0.698822 60.8912 1.12349 59.5735 1.32987C59.0338 1.41321 58.0535 2.19508 57.1803 2.33399C56.3667 2.46099 55.184 3.69133 54.1838 4.39382C53.4139 4.93755 52.9852 5.8861 52.8106 6.78306Z" fill="#92AE69"/>
<path d="M36.1146 62.5549C35.5311 62.8049 34.789 63.6662 34.3246 64.194C33.4515 65.1823 33.7372 66.877 33.9595 66.9921C34.1817 67.1072 34.023 67.639 34.2095 67.7779C34.8842 68.278 36.2217 67.9565 37.3568 68.3891C38.4998 68.8257 39.75 68.147 40.266 67.9406C40.4565 67.8652 42.0242 67.6707 42.7703 66.8373C43.5442 65.9721 44.8738 65.9403 44.9889 65.9602C45.1715 65.9919 45.1992 64.6147 43.8062 63.5789C43.3974 63.2733 42.8021 62.4319 42.1789 62.154C41.1947 61.7135 41.2979 61.6738 39.7818 61.5825C39.0277 61.5389 38.6427 61.4238 37.7973 61.646C37.329 61.7691 36.7972 62.2652 36.1185 62.5549H36.1146Z" fill="url(#paint31_radial_2066_7112)"/>
<path d="M41.31 65.0478C40.6035 65.0359 39.1311 65.0518 37.6587 65.5082C35.8647 66.0598 34.7058 66.5282 33.7533 67.1156C33.2175 67.445 31.249 69.2151 30.9156 69.5643C30.5822 69.9096 31.0743 70.0406 31.2648 69.862C31.4593 69.6834 33.5271 67.7268 33.8367 67.564C34.1462 67.4013 34.9519 66.7504 36.5871 66.1948C38.4604 65.5598 40.6115 65.3058 41.1116 65.3216C41.5005 65.3335 42.4689 65.3137 43.3619 65.4328C44.1755 65.5399 44.6994 65.6987 44.6994 65.6987C44.6359 65.6312 44.0763 65.3534 43.3381 65.2383C42.7428 65.143 42.0323 65.0597 41.31 65.0518V65.0478Z" fill="#6E9337"/>
<path d="M37.0638 20.9582C36.9527 21.6368 37.3019 22.8394 37.5044 23.5895C37.8854 24.9905 39.5602 25.7922 39.7864 25.6692C40.0127 25.5422 40.3976 26.0184 40.6239 25.9351C41.4494 25.6414 41.9217 24.2444 42.9536 23.4982C43.9895 22.7481 44.0966 21.2042 44.2038 20.6129C44.2435 20.3946 44.9618 18.8666 44.6403 17.6799C44.307 16.4456 45.0333 15.2351 45.1166 15.1438C45.2476 15.0009 44.0371 14.1119 42.3265 14.7112C41.8225 14.8858 40.739 14.8938 40.1357 15.2788C39.1832 15.886 39.211 15.7669 38.2704 17.0687C37.802 17.7156 37.4845 17.9895 37.2027 18.8864C37.0479 19.3825 37.1868 20.1723 37.0598 20.9621L37.0638 20.9582Z" fill="url(#paint32_radial_2066_7112)"/>
<path d="M42.227 17.8627C41.8182 18.4898 40.9966 19.8154 40.568 21.4188C40.0441 23.3675 39.802 24.701 39.7861 25.9235C39.7782 26.6101 40.2346 29.4795 40.3537 29.9995C40.4727 30.5194 40.8656 30.1582 40.818 29.8725C40.7704 29.5867 40.1989 26.5108 40.2346 26.1338C40.2663 25.7528 40.1393 24.6256 40.5719 22.8119C41.0681 20.7362 42.0642 18.6486 42.3619 18.216C42.5921 17.8746 43.1239 16.9935 43.7351 16.2673C44.2908 15.6084 44.7273 15.2354 44.7273 15.2354C44.6321 15.2512 44.0685 15.5767 43.5446 16.1641C43.1199 16.6403 42.6477 17.2237 42.227 17.8627Z" fill="#6E9337"/>
<path d="M27.1329 59.7373C27.6329 60.297 27.9663 61.5432 28.1846 62.3092C28.5974 63.7459 27.3591 65.2342 27.0575 65.2263C26.7558 65.2183 26.6368 65.8176 26.359 65.8533C25.3548 65.9684 24.0808 64.9246 22.6084 64.7262C21.128 64.5238 20.1398 63.1823 19.6953 62.7021C19.5325 62.5235 17.9331 61.4757 17.5799 60.2612C17.2108 58.9952 15.7859 58.2411 15.647 58.1935C15.4327 58.126 16.1511 56.7686 18.2268 56.5265C18.838 56.4551 19.9413 55.963 20.7708 56.0344C22.0805 56.1455 21.9853 56.0503 23.68 56.7885C24.5214 57.1576 25.0016 57.2568 25.7993 57.9395C26.2399 58.3165 26.5455 59.0904 27.1289 59.7413L27.1329 59.7373Z" fill="url(#paint33_radial_2066_7112)"/>
<path d="M20.1356 59.3164C20.9095 59.6934 22.497 60.511 23.8464 61.7572C25.4895 63.2733 26.4936 64.3608 27.208 65.4522C27.6089 66.0674 28.7797 68.8615 28.9543 69.3814C29.129 69.9013 28.5257 69.7584 28.4106 69.4806C28.2995 69.2028 27.1207 66.1706 26.8707 65.8451C26.6206 65.5197 26.1047 64.4441 24.6323 63.0114C22.9455 61.3683 20.7468 59.9474 20.1991 59.6895C19.7744 59.491 18.7306 58.9393 17.6947 58.5663C16.7541 58.225 16.0992 58.094 16.0992 58.094C16.2064 58.0622 16.9605 58.098 17.8257 58.3877C18.5282 58.6218 19.3378 58.9274 20.1276 59.3164H20.1356Z" fill="#6E9337"/>
<path d="M59.77 79.7346C59.4723 80.199 59.3612 81.1793 59.2818 81.7825C59.135 82.9136 60.1669 83.9852 60.3812 83.9614C60.5955 83.9376 60.7384 84.3901 60.9408 84.398C61.6671 84.4218 62.4688 83.5407 63.5007 83.2907C64.5366 83.0406 65.1041 81.9452 65.37 81.5444C65.4692 81.3975 66.5011 80.4887 66.6321 79.5282C66.7671 78.532 67.7037 77.8573 67.799 77.8137C67.9458 77.7462 67.2949 76.75 65.7907 76.6905C65.3502 76.6746 64.5127 76.365 63.9254 76.4722C63.0046 76.6389 63.0602 76.5595 61.929 77.2382C61.3655 77.5755 61.036 77.6827 60.536 78.2582C60.2621 78.5757 60.1192 79.1909 59.77 79.7306V79.7346Z" fill="url(#paint34_radial_2066_7112)"/>
<path d="M64.7138 78.968C64.2018 79.3093 63.15 80.0396 62.3166 81.0834C61.3006 82.3574 60.6933 83.2583 60.2964 84.1434C60.0742 84.6435 59.5225 86.87 59.4511 87.2827C59.3796 87.6955 59.7964 87.5447 59.848 87.3224C59.8996 87.1002 60.4314 84.6911 60.5782 84.4252C60.7211 84.1553 60.9831 83.298 61.884 82.0994C62.9199 80.7262 64.3447 79.4919 64.7098 79.2617C64.9956 79.0791 65.6822 78.591 66.3807 78.2377C67.0157 77.9163 67.4682 77.7734 67.4682 77.7734C67.3888 77.7535 66.8569 77.8329 66.2656 78.1107C65.7893 78.333 65.2416 78.6227 64.7177 78.972L64.7138 78.968Z" fill="#6E9337"/>
<path d="M86.6289 73.1206C86.2162 73.5214 89.9389 74.089 89.6056 73.7873C89.4666 73.6603 94.7294 76.4147 96.817 77.6093C99.8254 79.3278 99.8769 79.566 100.032 79.6652C100.071 79.689 99.8135 77.0894 99.0792 76.2321C98.2259 75.2399 97.7814 73.3944 96.4518 72.4935C95.3683 71.7553 93.9237 71.4179 92.737 70.7829C90.4549 69.5565 88.2244 71.5648 86.625 73.1206H86.6289Z" fill="url(#paint35_radial_2066_7112)"/>
<path d="M67.345 83.8711C66.9322 84.2719 70.655 84.8395 70.3216 84.5378C70.1827 84.4108 75.4454 87.1652 77.533 88.3598C80.5414 90.0783 80.593 90.3165 80.7478 90.4157C80.7875 90.4395 80.5295 87.8399 79.7953 86.9826C78.942 85.9904 78.4974 84.1449 77.1679 83.244C76.0844 82.5058 74.6397 82.1684 73.453 81.5334C71.171 80.307 68.9405 82.3153 67.341 83.8711H67.345Z" fill="url(#paint36_radial_2066_7112)"/>
<path d="M75.7241 87.7448C75.0375 87.3479 73.5214 86.2843 71.8743 85.9072C69.874 85.4429 68.3738 84.7801 67.3062 85.2841C66.6593 85.5897 65.4805 85.8993 64.9924 86.0382C64.5042 86.1771 64.8812 86.6177 65.1551 86.5581C65.425 86.4986 66.7466 85.9707 67.1157 85.9072C67.6475 85.8199 68.8818 85.423 70.6559 86.0858C72.7118 86.8518 73.5254 87.5742 75.0574 88.1655C75.617 88.3798 77.2005 88.7013 78.1134 89.1339C79.1056 89.5983 80.7527 90.4198 80.7527 90.4198C80.7209 90.3206 79.0857 89.3919 78.4229 88.8799C77.8871 88.4632 76.4266 88.1536 75.7241 87.7488V87.7448Z" fill="#6E9337"/>
<path d="M68.2493 83.176C67.9397 83.2712 66.2093 84.6484 66.6855 85.4898C66.8562 85.7954 66.8879 85.8907 67.269 85.7597C67.65 85.6287 69.6582 85.1723 71.5037 86.0097C72.0832 86.2717 73.9882 87.5457 76.1473 88.2244C79.0088 89.1213 80.6876 90.4469 80.7511 90.4191C80.7908 90.4033 79.7629 89.6254 78.6397 88.149C78.1793 87.5417 76.6831 86.8154 75.9409 85.8391C75.2463 84.9263 73.1389 84.2198 71.7141 83.426C70.6107 82.8109 69.3209 82.8585 68.2493 83.18V83.176Z" fill="#92AE69"/>
<path d="M101.071 50.037C100.805 50.5226 99.9846 51.0943 99.4834 51.4559C98.5442 52.1344 97.0757 51.7487 96.9916 51.5489C96.9075 51.3492 96.4274 51.4421 96.3222 51.2699C95.9367 50.6466 96.3292 49.5204 96.0384 48.5009C95.7475 47.478 96.4449 46.4517 96.6692 46.0246C96.7533 45.8662 97.0512 44.5265 97.8433 43.9479C98.6669 43.3486 98.8035 42.2017 98.7965 42.0984C98.7825 41.94 99.9986 42.0226 100.798 43.3107C101.033 43.6896 101.723 44.2716 101.919 44.833C102.228 45.7181 102.27 45.632 102.228 46.9476C102.207 47.602 102.273 47.943 102.01 48.6559C101.863 49.052 101.383 49.4721 101.075 50.0335L101.071 50.037Z" fill="url(#paint37_radial_2066_7112)"/>
<path d="M99.4656 45.4346C99.4173 46.0518 99.286 47.3313 98.7748 48.5727C98.1531 50.088 97.6558 51.059 97.0686 51.8392C96.7405 52.2795 95.0481 53.8469 94.7199 54.1104C94.3918 54.374 94.3193 53.937 94.4885 53.781C94.6578 53.6284 96.5194 51.9848 96.6852 51.7282C96.851 51.4716 97.4796 50.8232 98.0944 49.4465C98.7956 47.8653 99.1858 46.0136 99.2135 45.5802C99.2342 45.2404 99.3275 44.3978 99.2964 43.6141C99.2687 42.8998 99.172 42.4316 99.172 42.4316C99.2273 42.4906 99.4207 43.0003 99.4656 43.6522C99.5001 44.1793 99.514 44.8035 99.4656 45.4311V45.4346Z" fill="#6E9337"/>
<path d="M97.8538 20.8303C97.4014 21.378 97.1037 22.6282 96.9092 23.3982C96.5441 24.8389 97.6951 26.4026 97.9729 26.4066C98.2507 26.4105 98.3658 27.0257 98.6198 27.0694C99.5446 27.2281 100.707 26.224 102.057 26.0811C103.418 25.9382 104.311 24.6166 104.716 24.1443C104.863 23.9697 106.323 22.9735 106.641 21.7551C106.97 20.485 108.272 19.7786 108.399 19.7389C108.597 19.6794 107.923 18.2744 106.01 17.937C105.45 17.8378 104.426 17.2941 103.664 17.3298C102.462 17.3854 102.545 17.2941 100.993 17.9767C100.219 18.3141 99.7827 18.3974 99.0564 19.0563C98.6555 19.4174 98.3777 20.1913 97.8499 20.8303H97.8538Z" fill="url(#paint38_radial_2066_7112)"/>
<path d="M104.288 20.696C103.581 21.0452 102.128 21.8112 100.898 23.0217C99.4019 24.4942 98.4851 25.5538 97.8421 26.6334C97.481 27.2406 96.4252 30.0267 96.2705 30.5506C96.1157 31.0705 96.6713 30.9515 96.7705 30.6737C96.8698 30.3958 97.9255 27.3676 98.1517 27.0461C98.3779 26.7247 98.8423 25.657 100.184 24.264C101.72 22.6645 103.728 21.3151 104.232 21.077C104.625 20.8904 105.577 20.3785 106.526 20.0411C107.387 19.7355 107.99 19.6284 107.99 19.6284C107.891 19.5926 107.197 19.5966 106.403 19.8546C105.76 20.061 105.014 20.3427 104.292 20.6999L104.288 20.696Z" fill="#6E9337"/>
<path d="M93.7966 53.6828C93.4295 54.0312 96.6982 54.5712 96.4116 54.3064C96.2892 54.195 100.893 56.6754 102.718 57.7484C105.347 59.2917 105.393 59.5007 105.525 59.5913C105.56 59.6122 105.365 57.3268 104.728 56.5674C103.991 55.686 103.62 54.0626 102.459 53.2543C101.516 52.5924 100.243 52.2789 99.2083 51.7076C97.2121 50.6067 95.223 52.3416 93.7966 53.6898V53.6828Z" fill="url(#paint39_radial_2066_7112)"/>
<path d="M101.105 57.2425C100.504 56.8952 99.1726 55.9657 97.7213 55.6184C95.9538 55.1996 94.6361 54.6106 93.6838 55.0328C93.1075 55.2882 92.0604 55.5367 91.6282 55.6525C91.1924 55.7682 91.5227 56.1496 91.7652 56.1019C92.0077 56.0542 93.1813 55.615 93.5081 55.5673C93.979 55.4958 95.0789 55.1724 96.6426 55.758C98.4522 56.439 99.1655 57.0689 100.515 57.5932C101.007 57.7839 102.405 58.0801 103.21 58.458C104.082 58.87 105.529 59.5918 105.529 59.5918C105.505 59.5067 104.067 58.6929 103.484 58.2435C103.013 57.8792 101.724 57.6 101.109 57.2425H101.105Z" fill="#6E9337"/>
<path d="M94.4748 53.1134C94.1954 53.1932 92.6396 54.377 93.0533 55.1165C93.2018 55.3838 93.2301 55.4705 93.5696 55.3595C93.909 55.2484 95.7053 54.8734 97.3389 55.6268C97.8517 55.8628 99.5348 57.0015 101.451 57.6194C103.99 58.4387 105.468 59.6155 105.528 59.5912C105.564 59.5773 104.658 58.883 103.675 57.5777C103.272 57.0431 101.95 56.3905 101.299 55.5261C100.691 54.7207 98.8241 54.075 97.5617 53.3668C96.5858 52.8183 95.4366 52.8426 94.4783 53.1134H94.4748Z" fill="#92AE69"/>
<path d="M53.5119 35.537C53.246 36.3506 53.4683 37.8746 53.5873 38.8153C53.8135 40.5854 55.7861 41.8236 56.0996 41.7085C56.4131 41.5895 56.806 42.2285 57.1156 42.165C58.219 41.9348 59.0723 40.3036 60.5209 39.5495C61.9775 38.7914 62.3942 36.9221 62.6403 36.2196C62.7315 35.9617 63.9222 34.2035 63.7396 32.7072C63.5451 31.1474 64.6882 29.7822 64.8152 29.6829C65.0057 29.5282 63.6404 28.2542 61.3544 28.7225C60.6836 28.8614 59.3064 28.6987 58.469 29.0757C57.1513 29.6671 57.2029 29.5282 55.7702 30.9728C55.0558 31.6912 54.6033 31.973 54.0795 33.0287C53.7897 33.6121 53.8215 34.5924 53.5159 35.541L53.5119 35.537Z" fill="url(#paint40_radial_2066_7112)"/>
<path d="M60.635 32.5557C60 33.2582 58.7141 34.7545 57.8727 36.6436C56.8487 38.9456 56.2931 40.5331 56.047 42.0214C55.9081 42.8589 55.9597 46.4348 56.0152 47.0857C56.0708 47.7366 56.6384 47.3556 56.6265 47.0023C56.6185 46.6451 56.4637 42.8033 56.5749 42.3469C56.686 41.8865 56.7336 40.4895 57.6187 38.3463C58.6307 35.8856 60.2818 33.4964 60.7382 33.0082C61.0914 32.6311 61.9328 31.635 62.8417 30.8412C63.6672 30.1228 64.2943 29.7339 64.2943 29.7339C64.1712 29.7339 63.3973 30.0474 62.6234 30.6864C61.9963 31.2024 61.2859 31.8413 60.639 32.5597L60.635 32.5557Z" fill="#6E9337"/>
<path d="M46.4828 44.3947C47.1614 44.1645 48.4553 44.4145 49.253 44.5574C50.7532 44.8194 51.8447 46.7363 51.7534 47.034C51.6621 47.3277 52.2098 47.7246 52.1622 48.0143C51.9955 49.0581 50.6342 49.832 50.0309 51.1894C49.4237 52.5546 47.856 52.9039 47.2686 53.1182C47.0503 53.1976 45.5977 54.2851 44.3277 54.0668C43.006 53.8406 41.8789 54.8923 41.7955 55.0074C41.6685 55.186 40.5652 53.8485 40.9065 51.6815C41.0057 51.0465 40.8391 49.7249 41.1407 48.939C41.613 47.6968 41.4939 47.7444 42.6806 46.4188C43.272 45.76 43.4982 45.3353 44.3793 44.863C44.8635 44.6011 45.6969 44.6606 46.4867 44.3907L46.4828 44.3947Z" fill="url(#paint41_radial_2066_7112)"/>
<path d="M44.1293 51.1064C44.7087 50.519 45.9391 49.3324 47.5187 48.5823C49.4396 47.6654 50.7691 47.1812 52.0193 46.9868C52.7218 46.8796 55.7421 47.0225 56.2938 47.0939C56.8454 47.1654 56.5359 47.6932 56.2382 47.6734C55.9366 47.6535 52.6901 47.4035 52.3051 47.4988C51.9201 47.594 50.7414 47.6019 48.9514 48.3838C46.8955 49.2847 44.9151 50.7889 44.5142 51.2136C44.2007 51.543 43.3831 52.3169 42.7322 53.1623C42.1409 53.9323 41.8313 54.5157 41.8313 54.5157C41.8313 54.3966 42.0774 53.6663 42.5973 52.948C43.018 52.3646 43.5419 51.7057 44.1332 51.1064H44.1293Z" fill="#6E9337"/>
<path d="M99.3691 27.9546C98.9603 28.3595 102.683 28.9072 102.35 28.6095C102.211 28.4825 107.485 31.217 109.581 32.3998C112.597 34.1064 112.653 34.3405 112.808 34.4397C112.847 34.4636 112.577 31.864 111.839 31.0107C110.982 30.0224 110.529 28.1809 109.196 27.2839C108.108 26.5497 106.66 26.2203 105.473 25.5892C103.187 24.3748 100.965 26.3909 99.3691 27.9546Z" fill="url(#paint42_radial_2066_7112)"/>
<path d="M107.768 31.7928C107.081 31.3999 105.557 30.3442 103.91 29.9711C101.906 29.5187 100.406 28.8599 99.3383 29.3679C98.6953 29.6735 97.5166 29.991 97.0284 30.1339C96.5402 30.2767 96.9212 30.7173 97.1911 30.6538C97.461 30.5903 98.7786 30.0584 99.1478 29.9949C99.6756 29.9037 100.91 29.5028 102.688 30.1537C104.748 30.9117 105.565 31.6301 107.101 32.2135C107.661 32.4278 109.248 32.7414 110.165 33.166C111.157 33.6264 112.809 34.44 112.809 34.44C112.777 34.3408 111.138 33.4201 110.471 32.9081C109.931 32.4953 108.471 32.1897 107.768 31.7889V31.7928Z" fill="#6E9337"/>
<path d="M100.271 27.2599C99.9614 27.3551 98.2389 28.7403 98.7152 29.5777C98.8898 29.8793 98.9176 29.9785 99.2986 29.8476C99.6756 29.7166 101.684 29.2522 103.533 30.0778C104.117 30.3397 106.026 31.6058 108.189 32.2725C111.054 33.1576 112.737 34.4752 112.801 34.4435C112.84 34.4276 111.808 33.6537 110.681 32.1812C110.217 31.578 108.717 30.8596 107.971 29.8833C107.272 28.9744 105.165 28.2759 103.732 27.4901C102.624 26.8828 101.335 26.9344 100.267 27.2599H100.271Z" fill="#92AE69"/>
<path d="M60.3612 15.0306C60.2857 15.5466 62.9568 13.8638 62.5996 13.836C62.4488 13.8241 67.1598 12.8239 69.0728 12.4985C71.8311 12.0302 71.978 12.1651 72.1248 12.1492C72.1605 12.1453 70.7595 10.4506 69.8784 10.2561C68.8545 10.0299 67.6916 8.97813 66.4057 9.08132C65.354 9.16864 64.2625 9.73618 63.1909 9.9505C61.1351 10.3633 60.6509 13.0303 60.3572 15.0267L60.3612 15.0306Z" fill="url(#paint43_radial_2066_7112)"/>
<path d="M67.6131 13.0741C66.9821 13.1773 65.4977 13.2765 64.2555 13.9274C62.7434 14.7212 61.4614 15.0903 61.009 16.0468C60.7351 16.6223 60.1239 17.5034 59.8739 17.8764C59.6239 18.2495 60.0803 18.3487 60.2271 18.1543C60.374 17.9598 60.9733 16.8485 61.1836 16.5985C61.4852 16.2373 62.0925 15.2649 63.553 14.7411C65.2437 14.1338 66.1129 14.1894 67.383 13.7449C67.8473 13.5821 69.0221 12.9233 69.8159 12.7169C70.6771 12.4907 72.1297 12.1494 72.1297 12.1494C72.0662 12.0978 70.566 12.3558 69.8913 12.3637C69.3475 12.3717 68.2561 12.9709 67.6131 13.0741Z" fill="#6E9337"/>
<path d="M60.6166 14.0312C60.4618 14.2733 59.9975 16.214 60.7079 16.5435C60.9619 16.6625 61.0294 16.7141 61.212 16.4085C61.3945 16.1029 62.4741 14.6543 64.0656 14.2137C64.5656 14.0748 66.3992 13.9081 68.1178 13.1779C70.3919 12.2095 72.1064 12.2055 72.1342 12.1499C72.1541 12.1142 71.1182 12.142 69.6934 11.7253C69.106 11.5546 67.7963 11.8801 66.8517 11.6022C65.9706 11.3443 64.2719 12.0269 62.9741 12.265C61.97 12.4476 61.1604 13.2057 60.6206 14.0312H60.6166Z" fill="#92AE69"/>
<path d="M82.2403 45.0565C81.6847 45.4613 86.0068 46.767 85.6654 46.3543C85.5186 46.1797 91.3091 50.343 93.5873 52.117C96.8695 54.669 96.8933 54.9587 97.06 55.1016C97.0997 55.1373 97.2386 52.0059 96.5083 50.8629C95.6669 49.5373 95.4486 47.2751 94.0199 45.9733C92.857 44.9136 91.198 44.2667 89.8962 43.3102C87.3919 41.4686 84.4033 43.4769 82.2363 45.0565H82.2403Z" fill="url(#paint44_radial_2066_7112)"/>
<path d="M91.54 51.0773C90.7939 50.4899 89.1707 48.9699 87.2815 48.2396C84.9835 47.3506 83.3166 46.3068 81.9592 46.7275C81.1417 46.9815 79.6851 47.1482 79.0818 47.2315C78.4786 47.3149 78.8516 47.9022 79.185 47.8784C79.5184 47.8506 81.1734 47.4498 81.6219 47.4379C82.2649 47.422 83.8008 47.1601 85.7971 48.2475C88.107 49.5057 88.9524 50.5018 90.6748 51.4623C91.3019 51.8116 93.1276 52.4624 94.1436 53.1292C95.243 53.8515 97.0607 55.1017 97.0607 55.1017C97.0409 54.9787 95.2549 53.6015 94.5524 52.8752C93.9849 52.2918 92.3021 51.6766 91.54 51.0773Z" fill="#6E9337"/>
<path d="M83.4352 44.3855C83.0502 44.445 80.7642 45.7865 81.1849 46.866C81.3357 47.2549 81.3555 47.378 81.8318 47.2867C82.3041 47.1954 84.7687 46.993 86.8206 48.2987C87.4675 48.7115 89.5115 50.5451 91.9642 51.7159C95.2108 53.2638 96.9809 55.1252 97.0642 55.1014C97.1158 55.0855 96.0244 53.9901 94.9409 52.0453C94.4964 51.2476 92.8414 50.1324 92.123 48.8425C91.4523 47.6399 89.0709 46.4453 87.5112 45.2586C86.3047 44.3418 84.7648 44.1791 83.4392 44.3815L83.4352 44.3855Z" fill="#92AE69"/>
<path d="M32.6172 14.4948C32.7243 14.9393 34.427 12.5818 34.1174 12.6929C33.9864 12.7405 37.6417 10.1687 39.1578 9.18843C41.3407 7.77552 41.5113 7.83108 41.6304 7.76361C41.6582 7.74774 39.9079 6.90634 39.0943 7.08097C38.1537 7.28338 36.8162 6.87062 35.7605 7.43817C34.8992 7.90252 34.161 8.7717 33.3315 9.34322C31.7281 10.4466 32.2044 12.7763 32.6211 14.4948H32.6172Z" fill="url(#paint45_radial_2066_7112)"/>
<path d="M38.111 10.2043C37.611 10.5257 36.3846 11.1608 35.5511 12.153C34.5351 13.3595 33.5707 14.1374 33.5072 15.078C33.4675 15.6456 33.2413 16.5822 33.1539 16.9751C33.0666 17.368 33.4834 17.2807 33.5429 17.0664C33.6024 16.8561 33.7413 15.7329 33.8326 15.455C33.9676 15.0542 34.1581 14.0421 35.2217 13.0698C36.4521 11.9466 37.2061 11.6648 38.1348 10.8313C38.4722 10.5257 39.2501 9.55734 39.8534 9.08902C40.5082 8.58498 41.6235 7.76343 41.6235 7.76343C41.5481 7.74755 40.3693 8.51751 39.7978 8.77548C39.3374 8.98583 38.6151 9.87485 38.1031 10.2043H38.111Z" fill="#6E9337"/>
<path d="M32.4983 13.5976C32.4467 13.8516 32.7007 15.586 33.4111 15.586C33.6651 15.586 33.7405 15.6019 33.7921 15.2884C33.8437 14.9748 34.2803 13.4032 35.4789 12.4506C35.8559 12.149 37.3561 11.3314 38.5666 10.0971C40.17 8.46591 41.6187 7.81899 41.6266 7.76343C41.6266 7.72771 40.7614 8.1365 39.416 8.33494C38.8643 8.41829 37.8602 9.1684 36.9672 9.30334C36.1337 9.42637 34.9232 10.6091 33.9032 11.2878C33.1134 11.8116 32.6808 12.7245 32.4983 13.5937V13.5976Z" fill="#92AE69"/>
<path d="M54.2798 119C57.3072 119 59.7984 121.288 60.1226 124.229C61.1995 122.865 62.8676 121.989 64.7407 121.989C67.7767 121.989 70.2737 124.29 70.5864 127.243C74.4762 127.538 77.5405 130.787 77.5405 134.752V136.187H32.7056C32.7057 131.647 36.3858 127.967 40.9253 127.967H41.5659C42.2759 125.517 44.5348 123.726 47.2134 123.726C47.6507 123.726 48.0767 123.775 48.4868 123.865C48.968 121.101 51.3783 119 54.2798 119Z" fill="#7A5940"/>
<g clip-path="url(#clip0_2066_7112)">
<rect x="103.271" y="36.3477" width="22.6087" height="19.5652" rx="2" transform="rotate(90 103.271 36.3477)" fill="#B58F75"/>
<g filter="url(#filter0_d_2066_7112)">
<rect x="58.2708" y="36.3477" width="45" height="8" rx="2" fill="#BD967B"/>
</g>
</g>
<path d="M90.6621 37.2174L92.5734 33.6888C92.9587 32.9775 93.9853 32.9943 94.3471 33.7179L96.0969 37.2174" stroke="#FF7512"/>
<circle cx="90.6621" cy="37.217" r="0.434783" fill="#FFDFAD"/>
<circle cx="95.8795" cy="37.217" r="0.434783" fill="#FFDFAD"/>
<g clip-path="url(#clip1_2066_7112)">
<rect x="41.2709" y="72.3481" width="22.6087" height="19.5652" rx="2" transform="rotate(90 41.2709 72.3481)" fill="#B58F75"/>
<g filter="url(#filter1_d_2066_7112)">
<rect x="-3.72913" y="72.3481" width="45" height="8" rx="2" fill="#BD967B"/>
</g>
</g>
<path d="M28.6621 73.2174L30.5734 69.6888C30.9587 68.9775 31.9853 68.9943 32.3471 69.7179L34.0969 73.2174" stroke="#FF7512"/>
<circle cx="28.6621" cy="73.2175" r="0.434783" fill="#FFDFAD"/>
<circle cx="33.8795" cy="73.2175" r="0.434783" fill="#FFDFAD"/>
<g clip-path="url(#clip2_2066_7112)">
<rect x="20.2708" y="41.3477" width="22.6087" height="19.5652" rx="2" transform="rotate(90 20.2708 41.3477)" fill="#B58F75"/>
<g filter="url(#filter2_d_2066_7112)">
<rect x="-24.7292" y="41.3477" width="45" height="8" rx="2" fill="#BD967B"/>
</g>
</g>
<path d="M7.66211 42.2174L9.57342 38.6888C9.95874 37.9775 10.9853 37.9943 11.3471 38.7179L13.0969 42.2174" stroke="#FF7512"/>
<circle cx="7.66208" cy="42.2175" r="0.434783" fill="#FFDFAD"/>
<circle cx="12.8795" cy="42.2175" r="0.434783" fill="#FFDFAD"/>
<defs>
<filter id="filter0_d_2066_7112" x="56.2708" y="35.3477" width="47" height="10" filterUnits="userSpaceOnUse" color-interpolation-filters="sRGB">
<feFlood flood-opacity="0" result="BackgroundImageFix"/>
<feColorMatrix in="SourceAlpha" type="matrix" values="0 0 0 0 0 0 0 0 0 0 0 0 0 0 0 0 0 0 127 0" result="hardAlpha"/>
<feOffset dx="-1"/>
<feGaussianBlur stdDeviation="0.5"/>
<feComposite in2="hardAlpha" operator="out"/>
<feColorMatrix type="matrix" values="0 0 0 0 0.52432 0 0 0 0 0.317178 0 0 0 0 0.17545 0 0 0 1 0"/>
<feBlend mode="normal" in2="BackgroundImageFix" result="effect1_dropShadow_2066_7112"/>
<feBlend mode="normal" in="SourceGraphic" in2="effect1_dropShadow_2066_7112" result="shape"/>
</filter>
<filter id="filter1_d_2066_7112" x="-5.72913" y="71.3481" width="47" height="10" filterUnits="userSpaceOnUse" color-interpolation-filters="sRGB">
<feFlood flood-opacity="0" result="BackgroundImageFix"/>
<feColorMatrix in="SourceAlpha" type="matrix" values="0 0 0 0 0 0 0 0 0 0 0 0 0 0 0 0 0 0 127 0" result="hardAlpha"/>
<feOffset dx="-1"/>
<feGaussianBlur stdDeviation="0.5"/>
<feComposite in2="hardAlpha" operator="out"/>
<feColorMatrix type="matrix" values="0 0 0 0 0.52432 0 0 0 0 0.317178 0 0 0 0 0.17545 0 0 0 1 0"/>
<feBlend mode="normal" in2="BackgroundImageFix" result="effect1_dropShadow_2066_7112"/>
<feBlend mode="normal" in="SourceGraphic" in2="effect1_dropShadow_2066_7112" result="shape"/>
</filter>
<filter id="filter2_d_2066_7112" x="-26.7292" y="40.3477" width="47" height="10" filterUnits="userSpaceOnUse" color-interpolation-filters="sRGB">
<feFlood flood-opacity="0" result="BackgroundImageFix"/>
<feColorMatrix in="SourceAlpha" type="matrix" values="0 0 0 0 0 0 0 0 0 0 0 0 0 0 0 0 0 0 127 0" result="hardAlpha"/>
<feOffset dx="-1"/>
<feGaussianBlur stdDeviation="0.5"/>
<feComposite in2="hardAlpha" operator="out"/>
<feColorMatrix type="matrix" values="0 0 0 0 0.52432 0 0 0 0 0.317178 0 0 0 0 0.17545 0 0 0 1 0"/>
<feBlend mode="normal" in2="BackgroundImageFix" result="effect1_dropShadow_2066_7112"/>
<feBlend mode="normal" in="SourceGraphic" in2="effect1_dropShadow_2066_7112" result="shape"/>
</filter>
<radialGradient id="paint0_radial_2066_7112" cx="0" cy="0" r="1" gradientUnits="userSpaceOnUse" gradientTransform="translate(16.1232 68.0086) rotate(-159.91) scale(15.8357 15.6472)">
<stop stop-color="#609315"/>
<stop offset="0.16" stop-color="#609315"/>
<stop offset="0.31" stop-color="#12491D"/>
<stop offset="1" stop-color="#237D26"/>
</radialGradient>
<radialGradient id="paint1_radial_2066_7112" cx="0" cy="0" r="1" gradientUnits="userSpaceOnUse" gradientTransform="translate(43.7224 76.8549) rotate(-60.1) scale(7.20743 7.20742)">
<stop stop-color="#609315"/>
<stop offset="0.16" stop-color="#609315"/>
<stop offset="0.31" stop-color="#12491D"/>
<stop offset="1" stop-color="#237D26"/>
</radialGradient>
<radialGradient id="paint2_radial_2066_7112" cx="0" cy="0" r="1" gradientUnits="userSpaceOnUse" gradientTransform="translate(88.2113 79.4354) rotate(13.99) scale(15.8357 15.8357)">
<stop stop-color="#609315"/>
<stop offset="0.16" stop-color="#609315"/>
<stop offset="0.31" stop-color="#12491D"/>
<stop offset="1" stop-color="#237D26"/>
</radialGradient>
<radialGradient id="paint3_radial_2066_7112" cx="0" cy="0" r="1" gradientUnits="userSpaceOnUse" gradientTransform="translate(70.1002 70.8893) rotate(-85.81) scale(7.20743 7.20742)">
<stop stop-color="#609315"/>
<stop offset="0.16" stop-color="#609315"/>
<stop offset="0.31" stop-color="#12491D"/>
<stop offset="1" stop-color="#237D26"/>
</radialGradient>
<radialGradient id="paint4_radial_2066_7112" cx="0" cy="0" r="1" gradientUnits="userSpaceOnUse" gradientTransform="translate(23.3349 51.6358) rotate(149.49) scale(15.8357 15.6472)">
<stop stop-color="#609315"/>
<stop offset="0.16" stop-color="#609315"/>
<stop offset="0.31" stop-color="#12491D"/>
<stop offset="1" stop-color="#237D26"/>
</radialGradient>
<radialGradient id="paint5_radial_2066_7112" cx="0" cy="0" r="1" gradientUnits="userSpaceOnUse" gradientTransform="translate(35.9885 43.524) rotate(-110.7) scale(7.20742 7.20742)">
<stop stop-color="#609315"/>
<stop offset="0.16" stop-color="#609315"/>
<stop offset="0.31" stop-color="#12491D"/>
<stop offset="1" stop-color="#237D26"/>
</radialGradient>
<radialGradient id="paint6_radial_2066_7112" cx="0" cy="0" r="1" gradientUnits="userSpaceOnUse" gradientTransform="translate(66.9043 21.5947) rotate(-161.86) scale(11.6883 11.8768)">
<stop stop-color="#609315"/>
<stop offset="0.16" stop-color="#609315"/>
<stop offset="0.31" stop-color="#12491D"/>
<stop offset="1" stop-color="#237D26"/>
</radialGradient>
<radialGradient id="paint7_radial_2066_7112" cx="0" cy="0" r="1" gradientUnits="userSpaceOnUse" gradientTransform="translate(10.7204 54.0433) rotate(137.79) scale(15.8357 16.0242)">
<stop stop-color="#609315"/>
<stop offset="0.16" stop-color="#609315"/>
<stop offset="0.31" stop-color="#12491D"/>
<stop offset="1" stop-color="#237D26"/>
</radialGradient>
<radialGradient id="paint8_radial_2066_7112" cx="0" cy="0" r="1" gradientUnits="userSpaceOnUse" gradientTransform="translate(17.0904 71.7774) rotate(120.58) scale(18.852 18.852)">
<stop stop-color="#609315"/>
<stop offset="0.16" stop-color="#609315"/>
<stop offset="0.31" stop-color="#12491D"/>
<stop offset="1" stop-color="#237D26"/>
</radialGradient>
<radialGradient id="paint9_radial_2066_7112" cx="0" cy="0" r="1" gradientUnits="userSpaceOnUse" gradientTransform="translate(88.6789 72.556) rotate(-99.17) scale(14.7046 16.7783)">
<stop stop-color="#609315"/>
<stop offset="0.16" stop-color="#609315"/>
<stop offset="0.31" stop-color="#12491D"/>
<stop offset="1" stop-color="#237D26"/>
</radialGradient>
<radialGradient id="paint10_radial_2066_7112" cx="0" cy="0" r="1" gradientUnits="userSpaceOnUse" gradientTransform="translate(13.1143 26.372) rotate(172.57) scale(13.5734 13.3849)">
<stop stop-color="#609315"/>
<stop offset="0.16" stop-color="#609315"/>
<stop offset="0.31" stop-color="#12491D"/>
<stop offset="1" stop-color="#237D26"/>
</radialGradient>
<radialGradient id="paint11_radial_2066_7112" cx="0" cy="0" r="1" gradientUnits="userSpaceOnUse" gradientTransform="translate(11.0063 86.7821) rotate(172.57) scale(13.5734 13.3849)">
<stop stop-color="#609315"/>
<stop offset="0.16" stop-color="#609315"/>
<stop offset="0.31" stop-color="#12491D"/>
<stop offset="1" stop-color="#237D26"/>
</radialGradient>
<radialGradient id="paint12_radial_2066_7112" cx="0" cy="0" r="1" gradientUnits="userSpaceOnUse" gradientTransform="translate(42.1072 52.9568) rotate(-27.73) scale(18.475 15.6472)">
<stop stop-color="#609315"/>
<stop offset="0.16" stop-color="#609315"/>
<stop offset="0.31" stop-color="#12491D"/>
<stop offset="1" stop-color="#237D26"/>
</radialGradient>
<radialGradient id="paint13_radial_2066_7112" cx="0" cy="0" r="1" gradientUnits="userSpaceOnUse" gradientTransform="translate(36.7386 43.6947) rotate(-30.34) scale(18.852 18.852)">
<stop stop-color="#609315"/>
<stop offset="0.16" stop-color="#609315"/>
<stop offset="0.31" stop-color="#12491D"/>
<stop offset="1" stop-color="#237D26"/>
</radialGradient>
<radialGradient id="paint14_radial_2066_7112" cx="0" cy="0" r="1" gradientTransform="matrix(-10.63 -9.48452 -9.6476 10.2087 73.6575 47.8334)" gradientUnits="userSpaceOnUse">
<stop stop-color="#609315"/>
<stop offset="0.16" stop-color="#609315"/>
<stop offset="0.31" stop-color="#12491D"/>
<stop offset="1" stop-color="#237D26"/>
</radialGradient>
<radialGradient id="paint15_radial_2066_7112" cx="0" cy="0" r="1" gradientUnits="userSpaceOnUse" gradientTransform="translate(39.8561 31.7237) rotate(142.29) scale(15.8357 16.2127)">
<stop stop-color="#609315"/>
<stop offset="0.16" stop-color="#609315"/>
<stop offset="0.31" stop-color="#12491D"/>
<stop offset="1" stop-color="#237D26"/>
</radialGradient>
<radialGradient id="paint16_radial_2066_7112" cx="0" cy="0" r="1" gradientUnits="userSpaceOnUse" gradientTransform="translate(34.3095 25.3523) rotate(172.57) scale(13.5734 13.3849)">
<stop stop-color="#609315"/>
<stop offset="0.16" stop-color="#609315"/>
<stop offset="0.31" stop-color="#12491D"/>
<stop offset="1" stop-color="#237D26"/>
</radialGradient>
<radialGradient id="paint17_radial_2066_7112" cx="0" cy="0" r="1" gradientUnits="userSpaceOnUse" gradientTransform="translate(87.1424 52.7162) rotate(18.3) scale(18.852 18.852)">
<stop stop-color="#609315"/>
<stop offset="0.16" stop-color="#609315"/>
<stop offset="0.31" stop-color="#12491D"/>
<stop offset="1" stop-color="#237D26"/>
</radialGradient>
<radialGradient id="paint18_radial_2066_7112" cx="0" cy="0" r="1" gradientUnits="userSpaceOnUse" gradientTransform="translate(56.0574 36.9455) rotate(-169.46) scale(18.856 18.856)">
<stop stop-color="#609315"/>
<stop offset="0.16" stop-color="#609315"/>
<stop offset="0.31" stop-color="#12491D"/>
<stop offset="1" stop-color="#237D26"/>
</radialGradient>
<radialGradient id="paint19_radial_2066_7112" cx="0" cy="0" r="1" gradientTransform="matrix(-11.6854 -3.23872 -3.12454 12.1124 58.5149 44.9403)" gradientUnits="userSpaceOnUse">
<stop stop-color="#609315"/>
<stop offset="0.16" stop-color="#609315"/>
<stop offset="0.31" stop-color="#12491D"/>
<stop offset="1" stop-color="#237D26"/>
</radialGradient>
<radialGradient id="paint20_radial_2066_7112" cx="0" cy="0" r="1" gradientUnits="userSpaceOnUse" gradientTransform="translate(47.8575 65.0505) rotate(-171.42) scale(13.9534 14.5191)">
<stop stop-color="#609315"/>
<stop offset="0.16" stop-color="#609315"/>
<stop offset="0.31" stop-color="#12491D"/>
<stop offset="1" stop-color="#237D26"/>
</radialGradient>
<radialGradient id="paint21_radial_2066_7112" cx="0" cy="0" r="1" gradientUnits="userSpaceOnUse" gradientTransform="translate(44.7331 56.984) rotate(2.28) scale(16.9668 17.5324)">
<stop stop-color="#609315"/>
<stop offset="0.16" stop-color="#609315"/>
<stop offset="0.31" stop-color="#12491D"/>
<stop offset="1" stop-color="#237D26"/>
</radialGradient>
<radialGradient id="paint22_radial_2066_7112" cx="0" cy="0" r="1" gradientTransform="matrix(4.72314 12.0783 -11.7551 4.85299 84.5235 76.6635)" gradientUnits="userSpaceOnUse">
<stop stop-color="#609315"/>
<stop offset="0.16" stop-color="#609315"/>
<stop offset="0.31" stop-color="#12491D"/>
<stop offset="1" stop-color="#237D26"/>
</radialGradient>
<radialGradient id="paint23_radial_2066_7112" cx="0" cy="0" r="1" gradientTransform="matrix(8.43233 14.2526 -14.2696 8.42227 83.9372 80.1215)" gradientUnits="userSpaceOnUse">
<stop stop-color="#609315"/>
<stop offset="0.16" stop-color="#609315"/>
<stop offset="0.31" stop-color="#D3FE70"/>
<stop offset="1" stop-color="#237D26"/>
</radialGradient>
<radialGradient id="paint24_radial_2066_7112" cx="0" cy="0" r="1" gradientTransform="matrix(-11.6976 -11.15 -10.8056 12.0705 67.5194 54.5967)" gradientUnits="userSpaceOnUse">
<stop stop-color="#609315"/>
<stop offset="0.16" stop-color="#609315"/>
<stop offset="0.31" stop-color="#12491D"/>
<stop offset="1" stop-color="#237D26"/>
</radialGradient>
<radialGradient id="paint25_radial_2066_7112" cx="0" cy="0" r="1" gradientUnits="userSpaceOnUse" gradientTransform="translate(61.3862 26.5447) rotate(-34.53) scale(14.139 15.4587)">
<stop stop-color="#609315"/>
<stop offset="0.16" stop-color="#609315"/>
<stop offset="0.31" stop-color="#12491D"/>
<stop offset="1" stop-color="#237D26"/>
</radialGradient>
<radialGradient id="paint26_radial_2066_7112" cx="0" cy="0" r="1" gradientUnits="userSpaceOnUse" gradientTransform="translate(50.6012 11.5767) rotate(169.74) scale(11.6882 11.8768)">
<stop stop-color="#609315"/>
<stop offset="0.16" stop-color="#609315"/>
<stop offset="0.31" stop-color="#12491D"/>
<stop offset="1" stop-color="#237D26"/>
</radialGradient>
<radialGradient id="paint27_radial_2066_7112" cx="0" cy="0" r="1" gradientUnits="userSpaceOnUse" gradientTransform="translate(17.7054 71.5251) rotate(-100.56) scale(7.20346 7.20346)">
<stop stop-color="#609315"/>
<stop offset="0.16" stop-color="#609315"/>
<stop offset="0.31" stop-color="#12491D"/>
<stop offset="1" stop-color="#237D26"/>
</radialGradient>
<radialGradient id="paint28_radial_2066_7112" cx="0" cy="0" r="1" gradientUnits="userSpaceOnUse" gradientTransform="translate(14.165 35.0695) rotate(175.78) scale(6.05091 5.8348)">
<stop stop-color="#609315"/>
<stop offset="0.16" stop-color="#609315"/>
<stop offset="0.31" stop-color="#12491D"/>
<stop offset="1" stop-color="#237D26"/>
</radialGradient>
<radialGradient id="paint29_radial_2066_7112" cx="0" cy="0" r="1" gradientUnits="userSpaceOnUse" gradientTransform="translate(82.8199 26.1002) rotate(-139.45) scale(7.20346)">
<stop stop-color="#609315"/>
<stop offset="0.16" stop-color="#609315"/>
<stop offset="0.31" stop-color="#12491D"/>
<stop offset="1" stop-color="#237D26"/>
</radialGradient>
<radialGradient id="paint30_radial_2066_7112" cx="0" cy="0" r="1" gradientUnits="userSpaceOnUse" gradientTransform="translate(112.898 76.7971) rotate(-135.41) scale(5.47462)">
<stop stop-color="#609315"/>
<stop offset="0.16" stop-color="#609315"/>
<stop offset="0.31" stop-color="#12491D"/>
<stop offset="1" stop-color="#237D26"/>
</radialGradient>
<radialGradient id="paint31_radial_2066_7112" cx="0" cy="0" r="1" gradientUnits="userSpaceOnUse" gradientTransform="translate(41.905 82.816) rotate(26.82) scale(14.142)">
<stop stop-color="#609315"/>
<stop offset="0.16" stop-color="#609315"/>
<stop offset="0.31" stop-color="#12491D"/>
<stop offset="1" stop-color="#237D26"/>
</radialGradient>
<radialGradient id="paint32_radial_2066_7112" cx="0" cy="0" r="1" gradientUnits="userSpaceOnUse" gradientTransform="translate(54.3561 22.4473) rotate(-29.68) scale(14.7046 15.2701)">
<stop stop-color="#609315"/>
<stop offset="0.16" stop-color="#609315"/>
<stop offset="0.31" stop-color="#12491D"/>
<stop offset="1" stop-color="#237D26"/>
</radialGradient>
<radialGradient id="paint33_radial_2066_7112" cx="0" cy="0" r="1" gradientUnits="userSpaceOnUse" gradientTransform="translate(0.482835 69.0097) rotate(-177.65) scale(17.1553 15.4586)">
<stop stop-color="#609315"/>
<stop offset="0.16" stop-color="#609315"/>
<stop offset="0.31" stop-color="#12491D"/>
<stop offset="1" stop-color="#237D26"/>
</radialGradient>
<radialGradient id="paint34_radial_2066_7112" cx="0" cy="0" r="1" gradientUnits="userSpaceOnUse" gradientTransform="translate(70.4888 85.7262) rotate(-7.63001) scale(12.2564 12.2564)">
<stop stop-color="#609315"/>
<stop offset="0.16" stop-color="#609315"/>
<stop offset="0.31" stop-color="#12491D"/>
<stop offset="1" stop-color="#237D26"/>
</radialGradient>
<radialGradient id="paint35_radial_2066_7112" cx="0" cy="0" r="1" gradientUnits="userSpaceOnUse" gradientTransform="translate(90.9603 78.2309) rotate(-78.9) scale(7.20346 7.20346)">
<stop stop-color="#609315"/>
<stop offset="0.16" stop-color="#609315"/>
<stop offset="0.31" stop-color="#12491D"/>
<stop offset="1" stop-color="#237D26"/>
</radialGradient>
<radialGradient id="paint36_radial_2066_7112" cx="0" cy="0" r="1" gradientUnits="userSpaceOnUse" gradientTransform="translate(71.6763 88.9814) rotate(-78.9) scale(7.20346 7.20346)">
<stop stop-color="#609315"/>
<stop offset="0.16" stop-color="#609315"/>
<stop offset="0.31" stop-color="#12491D"/>
<stop offset="1" stop-color="#237D26"/>
</radialGradient>
<radialGradient id="paint37_radial_2066_7112" cx="0" cy="0" r="1" gradientTransform="matrix(-4.58604 -11.4118 -11.4578 4.44665 86.1086 38.9077)" gradientUnits="userSpaceOnUse">
<stop stop-color="#609315"/>
<stop offset="0.16" stop-color="#609315"/>
<stop offset="0.31" stop-color="#12491D"/>
<stop offset="1" stop-color="#237D26"/>
</radialGradient>
<radialGradient id="paint38_radial_2066_7112" cx="0" cy="0" r="1" gradientUnits="userSpaceOnUse" gradientTransform="translate(111.622 31.3954) scale(15.7126 15.7127)">
<stop stop-color="#609315"/>
<stop offset="0.16" stop-color="#609315"/>
<stop offset="0.31" stop-color="#12491D"/>
<stop offset="1" stop-color="#6E7D23"/>
</radialGradient>
<radialGradient id="paint39_radial_2066_7112" cx="0" cy="0" r="1" gradientTransform="matrix(1.30513 -6.1878 6.2094 1.30059 97.5791 58.2211)" gradientUnits="userSpaceOnUse">
<stop stop-color="#609315"/>
<stop offset="0.16" stop-color="#609315"/>
<stop offset="0.31" stop-color="#12491D"/>
<stop offset="1" stop-color="#237D26"/>
</radialGradient>
<radialGradient id="paint40_radial_2066_7112" cx="0" cy="0" r="1" gradientUnits="userSpaceOnUse" gradientTransform="translate(73.545 41.2523) rotate(-21.51) scale(18.852 18.852)">
<stop stop-color="#609315"/>
<stop offset="0.16" stop-color="#609315"/>
<stop offset="0.31" stop-color="#12491D"/>
<stop offset="1" stop-color="#237D26"/>
</radialGradient>
<radialGradient id="paint41_radial_2066_7112" cx="0" cy="0" r="1" gradientUnits="userSpaceOnUse" gradientTransform="translate(59.9459 37.6103) rotate(108.2) scale(17.3439 16.4012)">
<stop stop-color="#609315"/>
<stop offset="0.16" stop-color="#609315"/>
<stop offset="0.31" stop-color="#12491D"/>
<stop offset="1" stop-color="#6E7D23"/>
</radialGradient>
<radialGradient id="paint42_radial_2066_7112" cx="0" cy="0" r="1" gradientUnits="userSpaceOnUse" gradientTransform="translate(103.734 33.0102) rotate(-79.16) scale(7.20346 7.20347)">
<stop stop-color="#609315"/>
<stop offset="0.16" stop-color="#609315"/>
<stop offset="0.31" stop-color="#12491D"/>
<stop offset="1" stop-color="#237D26"/>
</radialGradient>
<radialGradient id="paint43_radial_2066_7112" cx="0" cy="0" r="1" gradientUnits="userSpaceOnUse" gradientTransform="translate(93.0732 79.1022) rotate(-113.13) scale(6.26701 5.97887)">
<stop stop-color="#609315"/>
<stop offset="0.16" stop-color="#609315"/>
<stop offset="0.31" stop-color="#12491D"/>
<stop offset="1" stop-color="#237D26"/>
</radialGradient>
<radialGradient id="paint44_radial_2066_7112" cx="0" cy="0" r="1" gradientUnits="userSpaceOnUse" gradientTransform="translate(86.4789 51.847) rotate(-70.79) scale(8.64415 8.64415)">
<stop stop-color="#609315"/>
<stop offset="0.16" stop-color="#609315"/>
<stop offset="0.31" stop-color="#12491D"/>
<stop offset="1" stop-color="#237D26"/>
</radialGradient>
<radialGradient id="paint45_radial_2066_7112" cx="0" cy="0" r="1" gradientUnits="userSpaceOnUse" gradientTransform="translate(70.2734 52.1245) rotate(-137.1) scale(5.47764)">
<stop stop-color="#609315"/>
<stop offset="0.16" stop-color="#609315"/>
<stop offset="0.31" stop-color="#12491D"/>
<stop offset="1" stop-color="#237D26"/>
</radialGradient>
<clipPath id="clip0_2066_7112">
<rect x="103.271" y="36.3477" width="22.6087" height="19.5652" rx="2" transform="rotate(90 103.271 36.3477)" fill="white"/>
</clipPath>
<clipPath id="clip1_2066_7112">
<rect x="41.2709" y="72.3481" width="22.6087" height="19.5652" rx="2" transform="rotate(90 41.2709 72.3481)" fill="white"/>
</clipPath>
<clipPath id="clip2_2066_7112">
<rect x="20.2708" y="41.3477" width="22.6087" height="19.5652" rx="2" transform="rotate(90 20.2708 41.3477)" fill="white"/>
</clipPath>
</defs>
</svg>
