<svg width="61" height="96" viewBox="0 0 61 96" fill="none" xmlns="http://www.w3.org/2000/svg">
<path d="M30.7715 36.3147C30.7715 36.3147 32.9796 86.2094 32.3645 88.9878L29.9251 89.0586C30.3982 87.6011 28.8999 41.8613 28.9367 35.7883C28.9998 25.4744 30.1774 11.2838 30.1774 11.9164C30.1774 12.8577 30.7715 36.3147 30.7715 36.3147Z" fill="#609315"/>
<path d="M23.3785 37.2235C24.5623 38.2683 25.6571 40.8471 26.363 42.4367C27.6802 45.4101 25.7516 49.0782 25.1514 49.1672C24.5511 49.2561 24.5289 50.6011 23.9898 50.7678C22.0446 51.3681 19.1545 49.5506 16.17 49.6285C13.1688 49.7063 10.7456 47.1441 9.69516 46.2493C9.31168 45.9214 5.77692 44.204 4.64869 41.6919C3.47599 39.0742 0.391411 37.9293 0.102406 37.8793C-0.347776 37.807 0.602613 34.6169 4.63201 33.3608C5.81582 32.994 7.82775 31.5378 9.49508 31.3989C12.1295 31.1821 11.9072 31.0043 15.5253 32.0214C17.326 32.5271 18.3042 32.5771 20.1216 33.7776C21.1275 34.439 22.0057 36.0119 23.384 37.2235H23.3785Z" fill="url(#paint0_radial_2066_7111)"/>
<path d="M9.37319 38.7517C11.035 39.302 14.4697 40.5247 17.5765 42.7589C21.3613 45.4767 23.7345 47.483 25.5241 49.6061C26.5301 50.801 29.8314 56.4533 30.3594 57.5204C30.8874 58.5875 29.6425 58.4875 29.3201 57.9206C28.9978 57.3537 25.6075 51.1901 24.9961 50.5676C24.3904 49.9451 22.9898 47.7943 19.5717 45.1988C15.6535 42.2198 10.8071 39.9078 9.62884 39.541C8.71181 39.2575 6.45535 38.4294 4.27669 37.9792C2.29812 37.5679 0.953125 37.5068 0.953125 37.5068C1.15321 37.4012 2.65937 37.2178 4.47677 37.5401C5.94959 37.8014 7.66694 38.1849 9.36207 38.7462L9.37319 38.7517Z" fill="#6E9337"/>
<path d="M37.6007 50.5286C36.4169 51.5735 35.3221 54.1523 34.6162 55.7418C33.299 58.7153 35.2276 62.3834 35.8278 62.4723C36.428 62.5613 36.4503 63.9062 36.9894 64.073C38.9346 64.6732 41.8247 62.8558 44.8092 62.9336C47.8104 63.0114 50.2336 60.4493 51.284 59.5545C51.6675 59.2266 55.2023 57.5092 56.3305 54.9971C57.5032 52.3794 60.5878 51.2345 60.8768 51.1845C61.327 51.1122 60.3766 47.922 56.3472 46.666C55.1634 46.2992 53.1515 44.843 51.4841 44.7041C48.8497 44.4873 49.072 44.3095 45.4539 45.3265C43.6532 45.8323 42.675 45.8823 40.8576 47.0828C39.8517 47.7442 38.9735 49.317 37.5952 50.5286H37.6007Z" fill="url(#paint1_radial_2066_7111)"/>
<path d="M51.6064 52.0627C49.9446 52.6129 46.5099 53.8356 43.4031 56.0699C39.6182 58.7876 37.245 60.794 35.4554 62.9171C34.4495 64.112 31.1481 69.7643 30.6201 70.8314C30.0922 71.8985 31.3371 71.7984 31.6594 71.2315C31.9818 70.6646 35.3721 64.501 35.9834 63.8786C36.5948 63.2561 37.9898 61.1052 41.4078 58.5097C45.3261 55.5308 50.1725 53.2187 51.3507 52.8519C52.2677 52.5685 54.5242 51.7403 56.7029 51.2902C58.6814 50.8789 60.0264 50.8178 60.0264 50.8178C59.8264 50.7122 58.3202 50.5287 56.5028 50.8566C55.0355 51.1179 53.3126 51.5014 51.6175 52.0627H51.6064Z" fill="#6E9337"/>
<path d="M35.3166 25.557C34.3662 26.3907 33.4936 28.4582 32.9323 29.7254C31.8763 32.1041 33.4214 35.0386 33.9049 35.1053C34.3884 35.1776 34.4051 36.2502 34.8331 36.3836C36.3893 36.8672 38.7013 35.411 41.0911 35.4721C43.4921 35.5333 45.4318 33.4825 46.271 32.7711C46.5822 32.5098 49.4056 31.1371 50.306 29.1252C51.2452 27.0299 53.7129 26.1128 53.9408 26.0739C54.302 26.0128 53.5406 23.4618 50.3171 22.4558C49.3723 22.1612 47.7605 20.9997 46.4266 20.8885C44.3202 20.7106 44.4981 20.5717 41.6025 21.3887C40.163 21.7944 39.3793 21.8333 37.9232 22.7948C37.1173 23.3228 36.417 24.5789 35.3166 25.5515V25.557Z" fill="url(#paint2_radial_2066_7111)"/>
<path d="M46.5212 26.7857C45.1874 27.2248 42.4474 28.203 39.9575 29.987C36.9285 32.1601 35.0333 33.7663 33.5994 35.467C32.7935 36.423 30.1535 40.947 29.7311 41.8029C29.3087 42.6588 30.3091 42.5754 30.5648 42.1252C30.8205 41.6751 33.5382 36.7397 34.0217 36.2451C34.5108 35.7449 35.628 34.0275 38.3568 31.9489C41.4914 29.5646 45.3708 27.7139 46.31 27.4249C47.0437 27.197 48.8499 26.5356 50.5895 26.1744C52.1735 25.8465 53.2462 25.7964 53.2462 25.7964C53.0905 25.7131 51.8789 25.5686 50.4284 25.8242C49.2501 26.0354 47.8773 26.3411 46.5212 26.7913V26.7857Z" fill="#6E9337"/>
<path d="M25.9352 11.7241C26.6911 12.391 27.3914 14.0473 27.8415 15.0588C28.6863 16.9595 27.4525 19.3105 27.0635 19.3661C26.68 19.4216 26.6633 20.2831 26.3187 20.3887C25.0738 20.7722 23.223 19.6106 21.3111 19.6606C19.3881 19.7106 17.8375 18.0711 17.165 17.4986C16.9205 17.2874 14.6585 16.1926 13.9359 14.5808C13.1856 12.9079 11.2126 12.1743 11.0237 12.1409C10.7347 12.0909 11.3405 10.0512 13.9193 9.24531C14.6751 9.01188 15.9645 8.07818 17.0316 7.98926C18.7157 7.85031 18.5767 7.73916 20.8887 8.38942C22.0392 8.71177 22.6672 8.74511 23.8288 9.51209C24.4735 9.93448 25.0349 10.9404 25.913 11.7185L25.9352 11.7241Z" fill="url(#paint3_radial_2066_7111)"/>
<path d="M16.976 12.7026C18.0431 13.0527 20.2384 13.8364 22.2281 15.2647C24.6513 17.0043 26.1686 18.2882 27.3135 19.6498C27.9582 20.4113 30.0701 24.0294 30.4091 24.7185C30.7482 25.4022 29.9478 25.3355 29.7422 24.9742C29.5366 24.613 27.3635 20.6669 26.9744 20.2668C26.5854 19.8666 25.6906 18.4938 23.5064 16.832C20.9998 14.9257 17.893 13.4473 17.1427 13.2084C16.5591 13.025 15.1141 12.497 13.7191 12.208C12.4519 11.9467 11.5905 11.9078 11.5905 11.9078C11.7183 11.8411 12.6853 11.7244 13.8469 11.9301C14.7862 12.0968 15.8866 12.3469 16.976 12.7026Z" fill="#6E9337"/>
<path d="M32.2322 8.18387C32.4268 9.03977 32.1767 10.5459 32.0322 11.4852C31.7654 13.2415 30.0369 14.2308 29.7757 14.0696C29.5145 13.9084 29.1532 14.4975 28.892 14.3975C27.9639 14.0196 27.3025 12.2577 26.102 11.3074C24.896 10.3514 24.6181 8.41175 24.4347 7.667C24.368 7.39467 23.4287 5.46612 23.6455 3.97663C23.8733 2.42601 22.9563 0.897616 22.8563 0.780902C22.7006 0.597495 23.9178 -0.50295 25.8408 0.275141C26.4077 0.50301 27.5859 0.525234 28.2807 1.01432C29.3755 1.78685 29.3366 1.63679 30.4982 3.28746C31.0762 4.10445 31.4486 4.4546 31.8488 5.58839C32.0711 6.21642 32.0044 7.20015 32.2267 8.195L32.2322 8.18387Z" fill="url(#paint4_radial_2066_7111)"/>
<path d="M26.2966 4.22687C26.8079 5.02163 27.8416 6.7001 28.4808 8.71758C29.2589 11.1741 29.6646 12.8526 29.8091 14.3865C29.8924 15.248 29.7035 18.8494 29.6257 19.4997C29.5479 20.15 29.0866 19.6886 29.1088 19.333C29.131 18.9773 29.42 15.1202 29.3422 14.6422C29.2644 14.1642 29.2811 12.747 28.6197 10.4683C27.8583 7.85056 26.5578 5.22173 26.191 4.6715C25.9019 4.24355 25.2295 3.12642 24.4903 2.20939C23.8178 1.37016 23.3009 0.90332 23.3009 0.90332C23.4065 0.919994 24.0512 1.34237 24.6848 2.08712C25.1961 2.68736 25.7741 3.42656 26.2966 4.238V4.22687Z" fill="#6E9337"/>
<path d="M28.6809 21.3115C28.8699 22.1396 31.8655 17.7378 31.3208 17.949C31.093 18.0379 37.5233 13.236 40.1911 11.4075C44.0315 8.76752 44.3316 8.87311 44.5373 8.74529C44.5873 8.71194 41.5083 7.14465 40.0744 7.467C38.4181 7.84493 36.0672 7.07239 34.2053 8.13392C32.6881 8.99538 31.3931 10.6238 29.9258 11.6909C27.1025 13.7473 27.9417 18.1046 28.6753 21.3115H28.6809Z" fill="url(#paint5_radial_2066_7111)"/>
<path d="M38.3515 13.3026C37.4734 13.9028 35.3169 15.0866 33.8441 16.9374C32.0545 19.1883 30.3594 20.6389 30.2482 22.3951C30.1815 23.4511 29.7814 25.2074 29.6257 25.941C29.4757 26.6746 30.2093 26.5079 30.3149 26.1133C30.4205 25.7187 30.665 23.6234 30.8262 23.101C31.0652 22.3507 31.3987 20.461 33.2717 18.6492C35.4392 16.5483 36.7675 16.0259 38.4015 14.4697C38.9962 13.9028 40.3634 12.091 41.4305 11.2184C42.581 10.2736 44.5484 8.7452 44.5484 8.7452C44.4206 8.71185 42.3364 10.1513 41.336 10.6348C40.5301 11.0239 39.2518 12.6912 38.357 13.297L38.3515 13.3026Z" fill="#6E9337"/>
<path d="M28.4753 19.633C28.3808 20.1054 28.831 23.3456 30.0815 23.3456C30.5316 23.3456 30.6595 23.379 30.754 22.7898C30.8484 22.2007 31.6099 19.2718 33.7218 17.4933C34.3888 16.9319 37.0232 15.4035 39.1573 13.1026C41.9807 10.0569 44.5317 8.85089 44.5428 8.74529C44.5484 8.6786 43.0256 9.44557 40.6524 9.81795C39.6798 9.97356 37.9124 11.3797 36.3451 11.6242C34.8778 11.8521 32.7492 14.0641 30.954 15.3313C29.5646 16.3095 28.7976 18.0157 28.4808 19.633H28.4753Z" fill="#92AE69"/>
<path d="M5.42004 95.7849C5.42004 90.8568 9.41506 86.8618 14.3432 86.8618H15.1543C20.0824 86.8618 24.0775 90.8568 24.0775 95.7849V95.7849H5.42004V95.7849Z" fill="#997257"/>
<path d="M19.2114 95.0384C19.2114 88.2825 24.6882 82.8057 31.4442 82.8057V82.8057C37.6805 82.8057 42.736 87.8612 42.736 94.0974V95.7847H19.2114V95.0384Z" fill="#997257"/>
<path d="M37.0573 94.9085C37.0573 90.0162 41.0232 86.0503 45.9155 86.0503V86.0503C50.4314 86.0503 54.0923 89.7112 54.0923 94.2271V95.7846H37.0573V94.9085Z" fill="#997257"/>
<circle cx="28.8401" cy="83.5115" r="6.38406" fill="#997257"/>
<circle cx="21.1697" cy="88.6414" r="6.38406" fill="#997257"/>
<circle cx="40.1964" cy="86.7561" r="6.38406" fill="#997257"/>
<defs>
<radialGradient id="paint0_radial_2066_7111" cx="0" cy="0" r="1" gradientUnits="userSpaceOnUse" gradientTransform="translate(-18.7503 64.2226) rotate(172.57) scale(34.3538 33.8767)">
<stop offset="0.41" stop-color="#12491D"/>
<stop offset="0.64" stop-color="#237D26"/>
<stop offset="0.98" stop-color="#539F00"/>
</radialGradient>
<radialGradient id="paint1_radial_2066_7111" cx="0" cy="0" r="1" gradientUnits="userSpaceOnUse" gradientTransform="translate(81.5193 84.263) rotate(7.43) scale(34.3538 34.3538)">
<stop offset="0.41" stop-color="#12491D"/>
<stop offset="0.64" stop-color="#237D26"/>
<stop offset="0.98" stop-color="#539F00"/>
</radialGradient>
<radialGradient id="paint2_radial_2066_7111" cx="0" cy="0" r="1" gradientUnits="userSpaceOnUse" gradientTransform="translate(72.9407 53.5596) rotate(7.43) scale(27.4831 27.4831)">
<stop offset="0.41" stop-color="#12491D"/>
<stop offset="0.64" stop-color="#237D26"/>
<stop offset="0.98" stop-color="#539F00"/>
</radialGradient>
<radialGradient id="paint3_radial_2066_7111" cx="0" cy="0" r="1" gradientUnits="userSpaceOnUse" gradientTransform="translate(-5.51591 29.1557) rotate(172.57) scale(21.9889 21.6835)">
<stop offset="0.41" stop-color="#12491D"/>
<stop offset="0.64" stop-color="#237D26"/>
<stop offset="0.98" stop-color="#539F00"/>
</radialGradient>
<radialGradient id="paint4_radial_2066_7111" cx="0" cy="0" r="1" gradientUnits="userSpaceOnUse" gradientTransform="translate(-60.2913 -41.0957) rotate(-147.55) scale(17.1769 17.5586)">
<stop offset="0.41" stop-color="#12491D"/>
<stop offset="0.64" stop-color="#237D26"/>
<stop offset="0.98" stop-color="#539F00"/>
</radialGradient>
<radialGradient id="paint5_radial_2066_7111" cx="0" cy="0" r="1" gradientUnits="userSpaceOnUse" gradientTransform="translate(98.4707 97.1156) rotate(-135.41) scale(9.85441)">
<stop offset="0.41" stop-color="#12491D"/>
<stop offset="0.64" stop-color="#237D26"/>
<stop offset="0.98" stop-color="#539F00"/>
</radialGradient>
</defs>
</svg>
